<svg preserveAspectRatio="xMidYMid meet" xmlns="http://www.w3.org/2000/svg" width="312.96" height="128" viewBox="0 -750 2445 1000" xmlns:xlink="http://www.w3.org/1999/xlink"><g stroke="currentColor" fill="currentColor" stroke-width="0" transform="scale(1,-1)"><g><g><g><use xlink:href="#MJX-23-NCM-N-57"/><use xlink:href="#MJX-23-NCM-N-45" transform="translate(1028,0)"/><use xlink:href="#MJX-23-NCM-N-52" transform="translate(1709,0)"/></g></g></g></g><defs><path id="MJX-23-NCM-N-57" d="M910 581C923 623 956 644 1009 644L1009 683C968 680 937 679 915 680L793 683L793 645C850 644 879 627 879 596C879 593 877 587 874 577L729 132L574 605C573 611 572 616 572 619C572 636 600 644 655 644L655 683C612 680 564 679 510 680L385 683L385 644C419 644 442 642 452 639C462 636 469 627 474 612L496 544L362 132L206 607C205 611 204 615 204 619C204 636 232 644 288 644L288 683C245 680 197 679 143 680L18 683L18 644C57 644 80 642 88 638C96 634 103 624 108 606L307 0C312-15 319-22 329-22C335-22 339-21 342-19C349-11 352-4 353 1L513 491L674 0C679-15 686-22 697-22C702-22 707-21 710-19C716-11 719-4 720 1Z"/><path id="MJX-23-NCM-N-45" d="M230 74L230 334L315 334C360 334 388 326 400 311C412 296 418 265 418 218L451 218L451 488L418 488C418 441 412 411 400 396C388 381 360 373 315 373L230 373L230 606C230 642 236 641 275 641L402 641C474 641 522 627 547 598C579 559 583 523 592 450L625 450L596 680L33 680L33 641L61 641C96 641 117 639 124 634C131 629 135 617 135 599L135 81C135 63 131 51 124 46C117 41 96 39 61 39L33 39L33 0L610 0L653 263L620 263C611 208 602 166 591 136C580 106 560 82 530 63C505 47 464 39 406 39L275 39C236 39 230 38 230 74Z"/><path id="MJX-23-NCM-N-52" d="M611 501C611 558 580 604 519 639C468 668 411 683 349 683L35 683L35 644L63 644C98 644 119 641 126 636C133 631 137 620 137 602L137 81C137 63 133 51 126 46C119 41 98 38 63 38L35 38L35-1C62 2 111 3 183 3C256 3 305 2 332-1L332 38L304 38C269 38 248 41 241 46C234 51 230 63 230 81L230 327L340 327C404 327 451 289 462 235C464 224 465 200 465 165C465 138 466 118 467 106C473 22 546-22 634-22C672-22 699-6 714 25C726 48 732 70 732 91C732 104 726 111 715 111C706 111 700 105 699 92C694 36 673 8 638 8C603 8 591 41 585 70C579 104 575 130 572 147L559 226C544 278 507 316 448 339C524 361 611 415 611 501M470 600C491 581 502 548 502 501C502 463 492 431 473 404C450 373 405 357 336 357L230 357L230 609C230 630 236 641 248 642C255 643 274 644 306 644C385 644 426 641 470 600Z"/><path id="MJX-23-NCM-N-3D" d="M698 367L80 367C64 367 56 359 56 344C56 329 64 321 80 321L698 321C714 321 722 329 722 344C722 356 711 367 698 367M698 179L80 179C64 179 56 171 56 156C56 141 64 133 80 133L698 133C714 133 722 141 722 156C722 169 711 179 698 179Z"/><path id="MJX-23-NCM-I-1D446" d="M133 157C133 181 136 201 141 217C141 227 136 232 125 232C120 232 116 230 114 228C109 223 52 8 52-8C52-17 57-22 67-22C72-22 79-17 88-6L133 47C168 1 224-22 300-22C366-22 424 5 476 58C528 111 554 170 554 236C554 283 538 323 505 355C490 368 470 379 445 388C422 393 400 399 378 405L312 423C279 432 254 469 254 509C254 552 271 589 306 621C341 653 380 669 423 669C515 669 561 619 561 520C561 502 557 482 557 465L557 462C560 455 565 451 573 451C582 451 588 459 592 474L645 691C645 700 640 705 630 705C625 705 618 700 609 689L566 637C538 682 491 705 424 705C361 705 304 681 254 634C202 586 176 531 176 468C176 396 223 339 282 323L387 296C441 281 475 262 475 195C475 149 457 108 422 72C387 36 347 17 302 17C204 17 133 60 133 157Z"/><path id="MJX-23-NCM-N-2B" d="M698 274L413 274L413 559C413 575 405 583 389 583C373 583 365 575 365 559L365 274L80 274C64 274 56 266 56 250C56 234 64 226 80 226L365 226L365-59C365-75 373-83 389-83C405-83 413-75 413-59L413 226L698 226C714 226 722 234 722 250C722 263 711 274 698 274Z"/><path id="MJX-23-NCM-I-1D437" d="M567 683L235 683C212 683 201 682 201 660C201 649 212 644 234 644C254 644 294 647 294 631C294 629 293 623 290 613L158 82C153 60 143 47 128 42C121 40 103 39 72 39C50 39 40 37 40 16C40 5 51 0 72 0L399 0C467 0 532 20 595 61C702 130 804 265 804 429C804 577 713 683 567 683M710 466C710 353 659 216 607 149C550 76 475 39 381 39L270 39C259 39 252 39 248 40C242 40 239 42 239 45C239 47 241 54 244 67L379 610C388 643 387 644 429 644L535 644C647 644 710 578 710 466Z"/><path id="MJX-23-NCM-I-1D43C" d="M497 667C497 678 491 683 478 683L349 680L218 683C202 684 194 676 194 659C194 649 205 644 226 644C269 644 290 639 290 630C290 625 289 620 288 615L155 82C150 60 140 47 125 42C118 40 100 39 69 39C44 39 34 38 34 15C34 5 40 0 53 0L181 3L313 0C329-1 337 7 337 23C337 39 325 39 303 39C264 39 240 37 240 53C240 58 241 65 244 75L376 602C381 623 391 636 406 641C413 643 431 644 462 644C486 644 497 645 497 667Z"/><path id="MJX-23-NCM-I-1D441" d="M864 683C845 683 783 680 764 680C745 680 682 683 663 683C648 683 641 675 641 659C641 650 648 645 663 644C705 644 726 631 726 605C726 599 725 592 724 585L616 157L401 662C393 681 391 683 366 683L233 683C209 683 200 681 200 659C200 649 211 644 232 644C274 644 295 643 296 640L163 110C154 71 131 49 95 42C69 39 39 43 39 15C39 5 45 0 56 0C74 0 136 3 155 3C174 3 238 0 257 0C272 0 279 8 279 24C279 33 271 38 255 39C214 40 194 53 194 78C194 83 195 90 197 100L326 611L576 21C582 7 590 0 599 0C608 0 614 8 618 24L757 574C770 625 798 643 860 644C874 645 881 653 881 669C878 678 877 683 864 683Z"/></defs></svg>
