<svg preserveAspectRatio="xMidYMid meet" xmlns="http://www.w3.org/2000/svg" width="539.968" height="128" viewBox="0 -750 4218.5 1000" xmlns:xlink="http://www.w3.org/1999/xlink"><g stroke="currentColor" fill="currentColor" stroke-width="0" transform="scale(1,-1)"><g><g><g><g><use xlink:href="#MJX-17-NCM-I-1D45D"/></g><g transform="translate(536,-150) scale(0.707)"><g><use xlink:href="#MJX-17-NCM-N-6E"/><use xlink:href="#MJX-17-NCM-N-75" transform="translate(556,0)"/><use xlink:href="#MJX-17-NCM-N-63" transform="translate(1112,0)"/><use xlink:href="#MJX-17-NCM-N-6C" transform="translate(1556,0)"/><use xlink:href="#MJX-17-NCM-N-65" transform="translate(1834,0)"/><use xlink:href="#MJX-17-NCM-N-75" transform="translate(2278,0)"/><use xlink:href="#MJX-17-NCM-N-73" transform="translate(2834,0)"/></g></g></g><g transform="translate(2868.5,0)"><use xlink:href="#MJX-17-NCM-N-2061"/></g><g transform="translate(2868.5,0)"><g><use xlink:href="#MJX-17-NCM-N-28"/></g><g transform="translate(389,0)"><use xlink:href="#MJX-17-NCM-I-1D465"/></g><g transform="translate(961,0)"><use xlink:href="#MJX-17-NCM-N-29"/></g></g></g></g></g><defs><path id="MJX-17-NCM-I-1D45D" d="M355 442C311 442 269 419 228 373C217 419 186 442 137 442C96 442 66 409 45 344C35 311 30 292 30 286C30 277 35 272 46 272C51 272 54 273 57 275C62 284 65 291 66 298C84 374 107 412 134 412C152 412 161 398 161 371C161 356 159 339 154 321L44-118C35-151 34-155-5-155C-23-155-32-163-32-178C-32-189-26-194-15-194C0-194 52-191 67-191C86-191 146-194 165-194C180-194 187-186 187-170C187-160 178-155 159-155C141-155 114-156 114-144C114-131 155 26 159 43C179 6 209-13 249-13C314-13 371 20 421 87C467 148 490 213 490 280C490 367 438 442 355 442M352 412C391 412 411 382 411 323C411 296 405 260 394 215C371 128 342 71 307 42C286 25 267 16 248 16C219 16 199 29 188 56C179 77 174 92 174 100L225 309C230 331 248 354 276 377C304 400 329 412 352 412Z"/><path id="MJX-17-NCM-N-6E" d="M314 413C359 413 382 378 382 307L382 79C382 60 379 48 372 44C365 40 343 38 306 38L306 0L421 3L535 0L535 38C503 38 482 39 472 42C462 45 458 52 458 64L458 251C458 298 457 331 454 350C444 411 399 442 320 442C257 442 210 412 179 352L179 442L32 431L32 393C68 393 90 390 98 384C106 378 109 365 109 342L109 79C109 60 105 48 98 44C91 40 69 38 32 38L32 0L147 3L261 0L261 38C224 38 203 40 196 44C189 48 185 60 185 79L185 259C185 340 236 413 314 413Z"/><path id="MJX-17-NCM-N-75" d="M267 18C198 18 185 47 185 112L185 442L32 431L32 393C71 393 94 389 100 382C106 375 109 350 109 306L109 159C109 120 112 90 119 67C134 15 189-11 262-11C316-11 357 14 385 65L385-11L535 0L535 38C499 38 478 40 470 46C462 52 458 66 458 89L458 442L306 431L306 393C341 393 362 390 370 384C378 378 382 365 382 342L382 167C382 88 340 18 267 18Z"/><path id="MJX-17-NCM-N-63" d="M251 416C293 416 325 406 347 386C323 383 306 361 306 338C306 305 322 289 355 289C388 289 404 306 404 339C404 410 327 448 250 448C188 448 137 426 96 380C55 334 34 279 34 216C34 155 55 101 96 56C137 11 187-11 248-11C298-11 337 3 365 32C388 55 403 78 411 102C414 111 415 117 415 121C415 130 409 134 398 134C390 134 385 130 382 122C361 55 320 21 257 21C228 21 200 34 172 61C139 92 123 144 123 218C123 318 161 416 251 416Z"/><path id="MJX-17-NCM-N-6C" d="M144 3L255 0L255 39C219 39 197 40 190 44C183 48 180 60 180 79L180 694L33 683L33 645C68 645 90 642 97 636C104 630 108 616 108 593L108 79C108 60 105 48 98 44C91 40 69 39 33 39L33 0Z"/><path id="MJX-17-NCM-N-65" d="M415 251C415 366 348 448 236 448C176 448 126 425 85 378C47 334 28 281 28 220C28 157 49 104 91 58C133 12 185-11 247-11C304-11 348 9 378 48C403 81 415 105 415 121C415 131 409 136 398 136C390 136 385 131 382 120C360 54 317 21 253 21C208 21 173 42 146 85C127 116 118 163 117 227L387 227C409 227 415 229 415 251M326 349C337 316 342 284 342 255L118 255C121 321 138 366 168 389C193 409 215 419 236 419C281 419 311 396 326 349Z"/><path id="MJX-17-NCM-N-73" d="M360 130C360 206 308 254 205 274C158 283 128 294 112 305C96 316 88 332 88 351C88 398 123 421 193 421C261 421 298 383 303 306C304 298 309 294 319 294C330 294 336 303 336 321L336 420C336 439 331 448 321 448C310 448 295 430 285 422C260 439 229 448 193 448C104 448 33 408 33 323C33 289 47 260 76 237C111 208 144 202 207 191C272 178 305 149 305 104C305 47 270 18 199 18C130 18 86 64 67 155C64 168 59 175 50 175C39 175 33 165 33 146L33 17C33-2 38-11 48-11C51-11 56-8 64-1C82 15 74 12 92 30C121 3 157-11 199-11C294-11 360 38 360 130Z"/><path id="MJX-17-NCM-N-2061" d=""/><path id="MJX-17-NCM-N-28" d="M318-248C327-248 332-243 332-234C332-231 330-227 327-223C275-183 233-117 202-26C175 53 161 131 161 208L161 292C161 369 175 447 202 526C233 617 275 683 327 723C330 726 332 730 332 734C332 743 327 748 318 748C317 748 314 747 311 745C251 699 201 631 160 540C121 453 101 371 101 292L101 208C101 129 121 47 160-40C201-131 251-199 311-245C314-247 317-248 318-248Z"/><path id="MJX-17-NCM-I-1D465" d="M527 373C527 419 482 442 432 442C389 442 355 419 329 373C308 419 273 442 222 442C173 442 133 419 101 374C74 335 60 306 60 287C60 278 65 273 75 273C84 273 90 278 92 287C111 345 153 413 220 413C253 413 269 392 269 351C269 330 251 252 216 118C199 51 169 18 126 18C112 18 99 21 88 26C114 36 127 54 127 80C127 106 114 119 87 119C54 119 29 91 29 58C29 12 76-11 125-11C167-11 201 12 228 58C247 12 283-11 335-11C383-11 423 12 455 57C482 96 496 125 496 144C496 153 491 158 481 158C472 158 467 153 464 144C447 87 402 18 337 18C304 18 287 38 287 79C287 92 292 120 303 165L337 300C356 375 387 413 431 413C445 413 458 410 469 405C442 396 429 378 429 351C429 325 443 312 470 312C502 312 527 341 527 373Z"/><path id="MJX-17-NCM-N-29" d="M78-245C138-199 188-131 229-40C268 47 288 129 288 208L288 292C288 371 268 453 229 540C188 631 138 699 78 745C75 747 72 748 71 748C62 748 57 743 57 734C57 730 59 726 62 723C114 683 156 617 187 526C214 447 228 369 228 292L228 208C228 131 214 53 187-26C156-117 114-183 62-223C59-227 57-231 57-234C57-243 62-248 71-248C72-248 75-247 78-245Z"/><path id="MJX-17-NCM-N-3D" d="M698 367L80 367C64 367 56 359 56 344C56 329 64 321 80 321L698 321C714 321 722 329 722 344C722 356 711 367 698 367M698 179L80 179C64 179 56 171 56 156C56 141 64 133 80 133L698 133C714 133 722 141 722 156C722 169 711 179 698 179Z"/><path id="MJX-17-NCM-N-6D" d="M315 413C361 413 384 378 384 307L384 79C384 60 381 48 374 44C367 40 344 38 307 38L307 0L423 3L538 0L538 38C501 38 479 40 472 44C465 48 461 60 461 79L461 259C461 339 513 413 590 413C637 413 660 378 660 307L660 79C660 60 656 48 649 44C642 40 619 38 582 38L582 0L698 3L813 0L813 38C781 38 760 39 750 42C740 45 736 52 736 64L736 251C736 298 734 331 731 350C721 411 676 442 597 442C534 442 487 413 455 354C441 413 397 442 322 442C259 442 211 412 179 352L179 442L32 431L32 393C68 393 90 390 98 384C106 378 109 365 109 342L109 79C109 60 105 48 98 44C91 40 69 38 32 38L32 0L148 3L263 0L263 38C226 38 203 40 196 44C189 48 185 60 185 79L185 259C185 340 238 413 315 413Z"/><path id="MJX-17-NCM-N-69" d="M194 601C194 631 169 657 139 657C109 657 83 631 83 601C83 571 108 544 138 544C169 544 194 570 194 601M143 3L247 0L247 39C214 39 194 41 188 45C182 49 180 60 180 78L180 445L37 433L37 395C70 395 91 392 98 387C105 382 108 368 108 345L108 79C108 60 105 48 98 44C91 40 69 39 33 39L33 0Z"/><path id="MJX-17-NCM-SO-2211" d="M56 713L417 216L67-217C60-225 57-231 57-235C57-245 67-250 88-250L913-250L1001 5L967 5C954-33 933-66 902-95C825-166 719-188 565-188L152-188L490 232C497 240 500 246 500 250C500 254 498 259 493 266L175 702L560 702C682 702 764 691 854 644C907 616 944 571 967 510L1001 510L913 750L88 750C57 750 56 746 56 713Z"/><path id="MJX-17-NCM-N-3A" d="M192 375C192 405 169 431 139 431C109 431 86 405 86 375C86 345 109 319 139 319C169 319 192 345 192 375M192 56C192 86 169 112 139 112C109 112 86 86 86 56C86 26 109 0 139 0C169 0 192 26 192 56Z"/><path id="MJX-17-NCM-N-50" d="M395 312C452 312 503 328 548 360C599 396 624 441 624 495C624 552 598 599 546 635C500 667 447 683 387 683L35 683L35 644L63 644C98 644 119 641 126 636C133 631 137 620 137 602L137 81C137 63 133 51 126 46C119 41 98 39 63 39L35 39L35 0C61 2 111 3 184 3C258 3 308 2 334 0L334 39L306 39C271 39 250 41 243 46C236 51 232 63 232 81L232 312M274 644L362 644C391 644 416 640 437 633C494 612 514 570 514 495C514 467 511 443 504 423C487 373 433 346 362 346L229 346L229 609C229 645 235 644 274 644Z"/><path id="MJX-17-NCM-N-2265" d="M684 310C694 315 699 322 699 333C699 344 694 352 684 357L110 629C107 630 103 631 99 631C83 631 75 623 75 606C75 597 80 590 89 586L623 333L89 80C80 76 75 69 75 60C75 43 83 35 99 35C103 35 107 36 110 38M678-72L100-72C84-72 76-80 76-95C76-111 84-119 100-119L678-119C694-119 702-111 702-95C702-83 691-72 678-72Z"/><path id="MJX-17-NCM-I-1D443" d="M555 683L235 683C212 683 201 682 201 660C201 649 212 644 234 644C254 644 294 647 294 631C294 629 293 623 290 613L158 82C152 60 142 47 128 42C121 40 103 39 72 39C50 39 40 37 40 16C40 5 46 0 59 0L184 3L248 2C259 2 299 0 312 0C328 0 336 8 336 24C336 34 325 39 304 39C264 39 244 43 244 52C244 52 245 55 247 68L307 312L472 312C537 312 599 332 657 371C722 414 754 467 754 530C754 629 660 683 555 683M524 644C611 644 654 614 654 554C654 498 626 423 597 397C559 363 509 346 447 346L313 346L379 610C387 644 387 644 429 644Z"/></defs></svg>
