<svg preserveAspectRatio="xMidYMid meet" xmlns="http://www.w3.org/2000/svg" width="616.064" height="128" viewBox="0 -750 4813 1000" xmlns:xlink="http://www.w3.org/1999/xlink"><g stroke="currentColor" fill="currentColor" stroke-width="0" transform="scale(1,-1)"><g><g><g><use xlink:href="#MJX-22-NCM-N-52"/><use xlink:href="#MJX-22-NCM-N-4F" transform="translate(736,0)"/><use xlink:href="#MJX-22-NCM-N-55" transform="translate(1514,0)"/><use xlink:href="#MJX-22-NCM-N-47" transform="translate(2264,0)"/><use xlink:href="#MJX-22-NCM-N-45" transform="translate(3049,0)"/></g><g transform="translate(3730,0)"><use xlink:href="#MJX-22-NCM-N-2D"/></g><g transform="translate(4063,0)"><use xlink:href="#MJX-22-NCM-N-4E"/></g></g></g></g><defs><path id="MJX-22-NCM-N-52" d="M611 501C611 558 580 604 519 639C468 668 411 683 349 683L35 683L35 644L63 644C98 644 119 641 126 636C133 631 137 620 137 602L137 81C137 63 133 51 126 46C119 41 98 38 63 38L35 38L35-1C62 2 111 3 183 3C256 3 305 2 332-1L332 38L304 38C269 38 248 41 241 46C234 51 230 63 230 81L230 327L340 327C404 327 451 289 462 235C464 224 465 200 465 165C465 138 466 118 467 106C473 22 546-22 634-22C672-22 699-6 714 25C726 48 732 70 732 91C732 104 726 111 715 111C706 111 700 105 699 92C694 36 673 8 638 8C603 8 591 41 585 70C579 104 575 130 572 147L559 226C544 278 507 316 448 339C524 361 611 415 611 501M470 600C491 581 502 548 502 501C502 463 492 431 473 404C450 373 405 357 336 357L230 357L230 609C230 630 236 641 248 642C255 643 274 644 306 644C385 644 426 641 470 600Z"/><path id="MJX-22-NCM-N-4F" d="M388-22C484-22 564 15 628 88C690 158 721 242 721 339C721 436 690 521 629 592C564 667 484 705 388 705C292 705 212 667 148 592C87 521 56 436 56 339C56 242 87 159 148 88C213 15 293-22 388-22M557 575C593 522 611 448 611 353C611 230 585 140 533 84C488 36 440 12 389 12C337 12 288 36 243 85C192 141 166 230 166 353C166 472 193 558 247 609C293 651 340 672 388 672C456 672 512 640 557 575Z"/><path id="MJX-22-NCM-N-55" d="M716 644L716 683L596 680L474 683L474 644C523 644 553 636 564 619C572 606 576 592 576 575L576 232C576 175 560 125 527 84C492 39 446 17 390 17C359 17 327 28 294 51C252 81 231 139 231 225L231 602C231 620 235 631 242 636C249 641 270 644 305 644L332 644L332 683C307 681 257 680 183 680C109 680 59 681 33 683L33 644L61 644C96 644 117 641 124 636C131 631 135 620 135 602L135 229C135 159 160 100 209 51C258 2 318-22 388-22C508-22 595 77 611 186C613 199 614 222 614 255L614 571C614 631 639 644 716 644Z"/><path id="MJX-22-NCM-N-47" d="M667 443L667 677C667 696 662 705 652 705C645 705 639 700 633 691L586 622C568 640 547 657 524 673C491 694 451 705 404 705C306 705 223 670 156 598C89 526 56 441 56 342C56 243 90 158 157 86C224 14 307-22 406-22C495-22 557 5 591 59C599 46 639 1 654 1C663 1 667 10 667 27L667 200C667 218 670 229 676 233C682 237 702 239 735 239L735 278L610 275C547 273 492 274 447 278L447 239L483 239C524 239 549 236 558 231C567 226 571 214 571 196L571 132C571 83 549 50 506 34C474 23 446 17 422 17C383 17 343 27 304 48C210 97 166 193 166 342C166 483 215 589 303 636C342 656 379 666 416 666C539 666 611 553 627 435C629 422 636 415 647 415C667 415 667 423 667 443Z"/><path id="MJX-22-NCM-N-45" d="M230 74L230 334L315 334C360 334 388 326 400 311C412 296 418 265 418 218L451 218L451 488L418 488C418 441 412 411 400 396C388 381 360 373 315 373L230 373L230 606C230 642 236 641 275 641L402 641C474 641 522 627 547 598C579 559 583 523 592 450L625 450L596 680L33 680L33 641L61 641C96 641 117 639 124 634C131 629 135 617 135 599L135 81C135 63 131 51 124 46C117 41 96 39 61 39L33 39L33 0L610 0L653 263L620 263C611 208 602 166 591 136C580 106 560 82 530 63C505 47 464 39 406 39L275 39C236 39 230 38 230 74Z"/><path id="MJX-22-NCM-N-2D" d="M11 187L276 187L276 245L11 245Z"/><path id="MJX-22-NCM-N-4E" d="M576 15C585.6 1 589 0 596 0C613 0 614 7 614 30L614 575C614 592 618 606 626 619C637 636 667 644 716 644L716 683L596 680L477 683L477 644C526 644 556 636 567 619C575 606 579 592 579 575L579 166L237 668C230 678 220 683 205 683L33 683L33 644L66 644C106 644 128 642 133 638C134 637 135 632 135 624L135 108C135 91 131 77 123 64C112 47 82 39 33 39L33 0L152 3L272 0L272 39C223 39 193 47 182 64C174 77 170 91 170 108L170 611Z"/><path id="MJX-22-NCM-N-3D" d="M698 367L80 367C64 367 56 359 56 344C56 329 64 321 80 321L698 321C714 321 722 329 722 344C722 356 711 367 698 367M698 179L80 179C64 179 56 171 56 156C56 141 64 133 80 133L698 133C714 133 722 141 722 156C722 169 711 179 698 179Z"/><path id="MJX-22-NCM-SO-2211" d="M56 713L417 216L67-217C60-225 57-231 57-235C57-245 67-250 88-250L913-250L1001 5L967 5C954-33 933-66 902-95C825-166 719-188 565-188L152-188L490 232C497 240 500 246 500 250C500 254 498 259 493 266L175 702L560 702C682 702 764 691 854 644C907 616 944 571 967 510L1001 510L913 750L88 750C57 750 56 746 56 713Z"/><path id="MJX-22-NCM-I-1D446" d="M133 157C133 181 136 201 141 217C141 227 136 232 125 232C120 232 116 230 114 228C109 223 52 8 52-8C52-17 57-22 67-22C72-22 79-17 88-6L133 47C168 1 224-22 300-22C366-22 424 5 476 58C528 111 554 170 554 236C554 283 538 323 505 355C490 368 470 379 445 388C422 393 400 399 378 405L312 423C279 432 254 469 254 509C254 552 271 589 306 621C341 653 380 669 423 669C515 669 561 619 561 520C561 502 557 482 557 465L557 462C560 455 565 451 573 451C582 451 588 459 592 474L645 691C645 700 640 705 630 705C625 705 618 700 609 689L566 637C538 682 491 705 424 705C361 705 304 681 254 634C202 586 176 531 176 468C176 396 223 339 282 323L387 296C441 281 475 262 475 195C475 149 457 108 422 72C387 36 347 17 302 17C204 17 133 60 133 157Z"/><path id="MJX-22-NCM-N-6D" d="M315 413C361 413 384 378 384 307L384 79C384 60 381 48 374 44C367 40 344 38 307 38L307 0L423 3L538 0L538 38C501 38 479 40 472 44C465 48 461 60 461 79L461 259C461 339 513 413 590 413C637 413 660 378 660 307L660 79C660 60 656 48 649 44C642 40 619 38 582 38L582 0L698 3L813 0L813 38C781 38 760 39 750 42C740 45 736 52 736 64L736 251C736 298 734 331 731 350C721 411 676 442 597 442C534 442 487 413 455 354C441 413 397 442 322 442C259 442 211 412 179 352L179 442L32 431L32 393C68 393 90 390 98 384C106 378 109 365 109 342L109 79C109 60 105 48 98 44C91 40 69 38 32 38L32 0L148 3L263 0L263 38C226 38 203 40 196 44C189 48 185 60 185 79L185 259C185 340 238 413 315 413Z"/><path id="MJX-22-NCM-N-61" d="M483 91L483 150L451 150L451 91C451 52 440 32 419 32C399 32 387 57 387 77L387 274C387 309 383 335 376 353C352 412 283 448 213 448C136 448 60 405 60 333C60 300 77 283 110 283C143 283 159 299 159 332C159 361 144 378 113 381C135 406 168 419 211 419C273 419 311 362 311 297L311 264C233 259 174 247 133 228C66 197 32 154 32 97C32 71 42 49 61 32C93 3 137-11 193-11C252-11 294 14 320 65C327 27 355-6 398-6C451-6 483 36 483 91M200 18C154 18 116 52 116 98C116 191 213 231 311 236L311 141C311 74 267 18 200 18Z"/><path id="MJX-22-NCM-N-74" d="M332 126L332 186L300 186L300 128C300 78 282 22 238 22C197 22 177 56 177 124L177 395L316 395L316 433L177 433L177 615L145 615C144 582 141 553 134 527C117 461 78 427 19 424L19 395L102 395L102 126C102 67 120 29 155 10C182-4 207-11 232-11C298-11 332 55 332 126Z"/><path id="MJX-22-NCM-N-63" d="M251 416C293 416 325 406 347 386C323 383 306 361 306 338C306 305 322 289 355 289C388 289 404 306 404 339C404 410 327 448 250 448C188 448 137 426 96 380C55 334 34 279 34 216C34 155 55 101 96 56C137 11 187-11 248-11C298-11 337 3 365 32C388 55 403 78 411 102C414 111 415 117 415 121C415 130 409 134 398 134C390 134 385 130 382 122C361 55 320 21 257 21C228 21 200 34 172 61C139 92 123 144 123 218C123 318 161 416 251 416Z"/><path id="MJX-22-NCM-N-68" d="M314 415C359 415 382 380 382 309L382 79C382 60 379 48 372 44C365 40 343 39 306 39L306 0L421 3L535 0L535 39C503 39 482 40 472 43C462 46 458 53 458 64L458 253C458 301 457 334 454 353C444 414 399 445 320 445C259 445 213 417 182 361L182 694L32 683L32 645C68 645 90 642 98 636C106 630 109 616 109 593L109 79C109 60 105 48 98 44C91 40 69 39 32 39L32 0L147 3L261 0L261 39C224 39 203 40 196 44C189 48 185 60 185 79L185 261C185 342 236 415 314 415Z"/><path id="MJX-22-NCM-I-1D45B" d="M537 137C514 58 481 18 440 18C427 18 420 28 420 47C420 61 426 84 438 115C478 224 498 296 498 333C498 403 451 442 381 442C322 442 271 416 230 363C222 407 187 442 136 442C80 442 58 390 44 345C34 313 29 294 29 287C29 278 34 273 45 273C50 273 53 274 56 276C61 285 64 292 65 299C83 375 106 413 133 413C151 413 160 399 160 371C160 358 155 331 144 290L87 63C84 50 78 24 78 19C78-1 89-11 111-11C130-11 144-1 151 19C153 24 159 49 170 92L191 181L221 295C232 318 249 341 270 365C299 397 335 413 378 413C411 413 427 391 427 348C427 310 406 234 363 120C356 102 353 87 353 74C353 25 390-11 438-11C482-11 517 14 542 64C561 104 571 131 571 144C571 153 566 158 555 158C552 158 537 149 537 137Z"/><path id="MJX-22-NCM-N-72" d="M364 378C364 417 327 442 288 442C237 442 198 412 172 351L172 442L28 431L28 393C63 393 84 390 92 384C100 378 104 365 104 342L104 79C104 60 101 48 94 44C87 40 65 38 28 38L28 0L143 3C185 4 228 3 271 0L271 38L247 38C214 38 193 41 186 46C179 51 176 63 176 81L176 232C176 275 184 314 199 347C219 390 248 412 287 413C277 403 272 391 272 377C272 346 287 331 318 331C345 331 364 352 364 378Z"/><path id="MJX-22-NCM-N-65" d="M415 251C415 366 348 448 236 448C176 448 126 425 85 378C47 334 28 281 28 220C28 157 49 104 91 58C133 12 185-11 247-11C304-11 348 9 378 48C403 81 415 105 415 121C415 131 409 136 398 136C390 136 385 131 382 120C360 54 317 21 253 21C208 21 173 42 146 85C127 116 118 163 117 227L387 227C409 227 415 229 415 251M326 349C337 316 342 284 342 255L118 255C121 321 138 366 168 389C193 409 215 419 236 419C281 419 311 396 326 349Z"/><path id="MJX-22-NCM-N-66" d="M265 705C176 705 110 633 110 544L110 434L33 434L33 396L110 396L110 79C110 60 107 48 100 44C93 40 71 39 34 39L34 0L149 3C191 4 234 3 277 0L277 39L253 39C220 39 199 41 192 46C185 51 182 63 182 81L182 396L294 396L294 434L179 434L179 545C179 605 210 675 265 675C273 675 280 674 287 672C272 664 264 650 264 631C264 600 279 584 310 584C341 584 357 600 357 632C357 677 310 705 265 705Z"/></defs></svg>
