<svg preserveAspectRatio="xMidYMid meet" xmlns="http://www.w3.org/2000/svg" width="311.168" height="128" viewBox="0 -750 2431 1000" xmlns:xlink="http://www.w3.org/1999/xlink"><g stroke="currentColor" fill="currentColor" stroke-width="0" transform="scale(1,-1)"><g><g><g><use xlink:href="#MJX-8-NCM-N-52"/><use xlink:href="#MJX-8-NCM-N-6F" transform="translate(736,0)"/><use xlink:href="#MJX-8-NCM-N-50" transform="translate(1236,0)"/><use xlink:href="#MJX-8-NCM-N-45" transform="translate(1917,0)"/></g></g><g transform="translate(2598,0)"/></g></g><defs><path id="MJX-8-NCM-N-52" d="M611 501C611 558 580 604 519 639C468 668 411 683 349 683L35 683L35 644L63 644C98 644 119 641 126 636C133 631 137 620 137 602L137 81C137 63 133 51 126 46C119 41 98 38 63 38L35 38L35-1C62 2 111 3 183 3C256 3 305 2 332-1L332 38L304 38C269 38 248 41 241 46C234 51 230 63 230 81L230 327L340 327C404 327 451 289 462 235C464 224 465 200 465 165C465 138 466 118 467 106C473 22 546-22 634-22C672-22 699-6 714 25C726 48 732 70 732 91C732 104 726 111 715 111C706 111 700 105 699 92C694 36 673 8 638 8C603 8 591 41 585 70C579 104 575 130 572 147L559 226C544 278 507 316 448 339C524 361 611 415 611 501M470 600C491 581 502 548 502 501C502 463 492 431 473 404C450 373 405 357 336 357L230 357L230 609C230 630 236 641 248 642C255 643 274 644 306 644C385 644 426 641 470 600Z"/><path id="MJX-8-NCM-N-6F" d="M249-11C311-11 363 11 406 55C449 99 471 152 471 214C471 277 450 332 408 378C366 424 313 448 250 448C187 448 135 424 92 378C49 332 28 277 28 214C28 152 49 99 92 55C135 11 188-11 249-11M250 21C202 21 166 42 141 85C125 113 117 159 117 222C117 283 125 327 140 355C164 398 200 419 249 419C296 419 332 398 357 357C374 329 382 284 382 222C382 106 348 21 250 21Z"/><path id="MJX-8-NCM-N-50" d="M395 312C452 312 503 328 548 360C599 396 624 441 624 495C624 552 598 599 546 635C500 667 447 683 387 683L35 683L35 644L63 644C98 644 119 641 126 636C133 631 137 620 137 602L137 81C137 63 133 51 126 46C119 41 98 39 63 39L35 39L35 0C61 2 111 3 184 3C258 3 308 2 334 0L334 39L306 39C271 39 250 41 243 46C236 51 232 63 232 81L232 312M274 644L362 644C391 644 416 640 437 633C494 612 514 570 514 495C514 467 511 443 504 423C487 373 433 346 362 346L229 346L229 609C229 645 235 644 274 644Z"/><path id="MJX-8-NCM-N-45" d="M230 74L230 334L315 334C360 334 388 326 400 311C412 296 418 265 418 218L451 218L451 488L418 488C418 441 412 411 400 396C388 381 360 373 315 373L230 373L230 606C230 642 236 641 275 641L402 641C474 641 522 627 547 598C579 559 583 523 592 450L625 450L596 680L33 680L33 641L61 641C96 641 117 639 124 634C131 629 135 617 135 599L135 81C135 63 131 51 124 46C117 41 96 39 61 39L33 39L33 0L610 0L653 263L620 263C611 208 602 166 591 136C580 106 560 82 530 63C505 47 464 39 406 39L275 39C236 39 230 38 230 74Z"/><path id="MJX-8-NCM-N-3A" d="M192 375C192 405 169 431 139 431C109 431 86 405 86 375C86 345 109 319 139 319C169 319 192 345 192 375M192 56C192 86 169 112 139 112C109 112 86 86 86 56C86 26 109 0 139 0C169 0 192 26 192 56Z"/><path id="MJX-8-NCM-I-1D45E" d="M372 377C352 420 321 442 280 442C215 442 158 409 109 342C63 280 40 216 40 149C40 62 90-13 173-13C209-13 245 4 282 38L241-126C238-141 229-150 215-153C210-154 197-155 174-155C168-156 164-156 162-156C153-157 148-165 148-179L148-183C151-190 157-194 165-194C184-194 244-191 263-191C282-191 345-194 364-194C378-194 385-186 385-170C385-160 375-155 356-155C338-155 313-156 313-144C313-140 314-133 317-123L452 427C452 436 447 441 438 441C420 441 382 391 372 377M340 373C349 352 354 338 354 329C354 328 353 322 351 313L327 216C308 144 299 107 298 105C279 70 224 16 176 16C137 16 117 46 117 105C117 151 148 263 162 300C181 347 225 412 280 412C307 412 327 399 340 373Z"/><path id="MJX-8-NCM-I-1D45A" d="M657 442C596 442 543 412 498 353C489 412 451 442 383 442C324 442 273 416 231 363C223 407 188 442 137 442C96 442 66 409 45 344C34 312 29 293 29 287C29 278 34 273 45 273C50 273 53 274 56 276C61 285 64 292 66 299C84 375 107 413 134 413C152 413 161 399 161 371C161 358 156 331 145 290L88 63C84 51 79 25 79 19C79-1 90-11 111-11C131-11 145-1 152 19C153 24 160 49 171 92L192 181L222 295C233 318 250 341 272 365C301 397 337 413 380 413C413 413 429 391 429 348C429 335 424 308 414 267L387 153C380 124 364 64 356 32C355 25 354 21 354 19C354-1 365-11 387-11C398-11 406-8 413-1C428 14 429 21 435 48L494 285C497 298 511 321 535 353C565 393 605 413 654 413C687 413 703 391 703 348C703 309 683 236 642 129C633 106 629 87 629 74C629 25 666-11 714-11C759-11 793 14 818 64C838 104 848 131 848 144C848 153 843 158 832 158C825 157 818 148 813 137C791 58 759 18 716 18C703 18 696 28 696 47C696 62 702 84 714 115C755 222 775 295 775 333C775 404 728 442 657 442Z"/><path id="MJX-8-NCM-N-22C5" d="M192 250C192 279 168 303 139 303C110 303 86 279 86 250C86 221 110 197 139 197C168 197 192 221 192 250Z"/><path id="MJX-8-NCM-I-1D458" d="M409 353C409 327 423 314 450 314C485 314 508 345 508 379C508 418 476 445 437 445C392 445 344 415 291 356C250 311 217 282 190 269L291 679C289 688 287 694 274 694C242 694 166 685 154 684C139 682 132 675 132 660C132 650 141 645 159 645C178 645 204 646 204 632L59 43C56 32 55 25 55 21C55 0 66-11 87-11C104-11 117-3 124 12C129 21 147 92 179 226C231 221 286 196 286 146C286 131 279 101 279 91C279 34 316-11 373-11C431-11 470 41 490 145C490 154 485 159 475 159C466 159 460 152 457 138C435 59 408 19 375 19C357 19 348 33 348 61C348 77 360 131 360 147C360 204 314 239 221 253C244 269 270 292 298 322C326 352 346 371 359 382C386 404 412 415 435 415C445 415 453 413 459 409C432 404 409 379 409 353Z"/><path id="MJX-8-NCM-I-1D45B" d="M537 137C514 58 481 18 440 18C427 18 420 28 420 47C420 61 426 84 438 115C478 224 498 296 498 333C498 403 451 442 381 442C322 442 271 416 230 363C222 407 187 442 136 442C80 442 58 390 44 345C34 313 29 294 29 287C29 278 34 273 45 273C50 273 53 274 56 276C61 285 64 292 65 299C83 375 106 413 133 413C151 413 160 399 160 371C160 358 155 331 144 290L87 63C84 50 78 24 78 19C78-1 89-11 111-11C130-11 144-1 151 19C153 24 159 49 170 92L191 181L221 295C232 318 249 341 270 365C299 397 335 413 378 413C411 413 427 391 427 348C427 310 406 234 363 120C356 102 353 87 353 74C353 25 390-11 438-11C482-11 517 14 542 64C561 104 571 131 571 144C571 153 566 158 555 158C552 158 537 149 537 137Z"/><path id="MJX-8-NCM-N-223C" d="M597 143C674 166 714 235 717 350C717 361 712 366 701 366C691 366 686 361 685 351C684 308 675 275 657 251C637 224 592 194 548 194C518 194 486 207 453 233C434 248 418 261 406 271C335 333 274 364 222 364C207 364 192 362 177 357C92 332 59 262 56 150C56 139 61 134 72 134C82 134 87 139 88 149C89 192 98 225 116 249C135 275 182 306 225 306C255 306 287 293 320 267C339 252 355 239 367 229C438 167 499 136 551 136C566 136 582 138 597 143Z"/><path id="MJX-8-NCM-I-1D453" d="M552 633C552 677 509 705 462 705C400 705 357 665 334 586C329 568 318 517 302 433L237 433C215 433 204 432 204 411C204 400 214 395 235 395L295 395L222 8C211-49 201-91 192-119C180-156 163-175 141-175C126-175 114-171 103-164C135-159 151-140 151-108C151-82 138-69 111-69C77-69 53-99 53-133C53-177 94-205 141-205C166-205 189-195 208-174C240-141 265-94 283-31C294 8 304 46 311 84L369 395L451 395C474 395 484 396 484 419C484 428 474 433 454 433L377 433C383 474 411 625 420 644C430 665 444 675 462 675C477 675 490 671 501 664C470 657 454 639 454 608C454 582 467 569 494 569C528 569 552 599 552 633Z"/><path id="MJX-8-NCM-N-2061" d=""/><path id="MJX-8-NCM-N-28" d="M318-248C327-248 332-243 332-234C332-231 330-227 327-223C275-183 233-117 202-26C175 53 161 131 161 208L161 292C161 369 175 447 202 526C233 617 275 683 327 723C330 726 332 730 332 734C332 743 327 748 318 748C317 748 314 747 311 745C251 699 201 631 160 540C121 453 101 371 101 292L101 208C101 129 121 47 160-40C201-131 251-199 311-245C314-247 317-248 318-248Z"/><path id="MJX-8-NCM-N-2212" d="M698 270L80 270C64 270 56 263 56 250C56 237 64 230 80 230L698 230C714 230 722 237 722 250C722 262 710 270 698 270Z"/><path id="MJX-8-NCM-N-29" d="M78-245C138-199 188-131 229-40C268 47 288 129 288 208L288 292C288 371 268 453 229 540C188 631 138 699 78 745C75 747 72 748 71 748C62 748 57 743 57 734C57 730 59 726 62 723C114 683 156 617 187 526C214 447 228 369 228 292L228 208C228 131 214 53 187-26C156-117 114-183 62-223C59-227 57-231 57-234C57-243 62-248 71-248C72-248 75-247 78-245Z"/></defs></svg>
