<svg preserveAspectRatio="xMidYMid meet" xmlns="http://www.w3.org/2000/svg" width="426.586" height="128" viewBox="0 -750 3332.7 1000" xmlns:xlink="http://www.w3.org/1999/xlink"><g stroke="currentColor" fill="currentColor" stroke-width="0" transform="scale(1,-1)"><g><g><g><use xlink:href="#MJX-20-NCM-I-1D43C"/></g><g transform="translate(497,0)"><use xlink:href="#MJX-20-NCM-N-2061"/></g><g transform="translate(497,0)"><g><use xlink:href="#MJX-20-NCM-N-28"/></g><g transform="translate(389,0)"><g><use xlink:href="#MJX-20-NCM-I-1D44B"/></g><g transform="translate(851,0)"><use xlink:href="#MJX-20-NCM-N-3B"/></g><g transform="translate(1295.7,0)"><use xlink:href="#MJX-20-NCM-I-1D44C"/></g></g><g transform="translate(2446.7,0)"><use xlink:href="#MJX-20-NCM-N-29"/></g></g></g></g></g><defs><path id="MJX-20-NCM-I-1D43C" d="M497 667C497 678 491 683 478 683L349 680L218 683C202 684 194 676 194 659C194 649 205 644 226 644C269 644 290 639 290 630C290 625 289 620 288 615L155 82C150 60 140 47 125 42C118 40 100 39 69 39C44 39 34 38 34 15C34 5 40 0 53 0L181 3L313 0C329-1 337 7 337 23C337 39 325 39 303 39C264 39 240 37 240 53C240 58 241 65 244 75L376 602C381 623 391 636 406 641C413 643 431 644 462 644C486 644 497 645 497 667Z"/><path id="MJX-20-NCM-N-2061" d=""/><path id="MJX-20-NCM-N-28" d="M318-248C327-248 332-243 332-234C332-231 330-227 327-223C275-183 233-117 202-26C175 53 161 131 161 208L161 292C161 369 175 447 202 526C233 617 275 683 327 723C330 726 332 730 332 734C332 743 327 748 318 748C317 748 314 747 311 745C251 699 201 631 160 540C121 453 101 371 101 292L101 208C101 129 121 47 160-40C201-131 251-199 311-245C314-247 317-248 318-248Z"/><path id="MJX-20-NCM-I-1D44B" d="M834 683C817 683 758 680 741 680C721 680 651 683 631 683C616 683 608 675 608 659C608 650 613 645 624 644C648 641 660 633 660 618C660 609 654 598 642 585L486 417C457 485 429 552 400 620C401 622 402 624 405 626C414 636 431 642 455 644C471 646 479 654 479 667C479 678 473 683 460 683C436 683 359 680 335 680C314 680 245 683 224 683C209 683 202 675 202 659C202 649 211 644 229 644C274 644 288 644 300 615L416 342L208 119C205 116 201 112 196 109C155 66 108 42 53 39C36 38 27 29 27 14C30 5 31 0 44 0C61 0 120 3 137 3C158 3 227 0 248 0C263 0 270 8 270 24C270 33 265 38 254 39C230 41 218 50 218 65C218 75 227 89 244 107C306 173 369 239 430 306C464 225 499 145 532 63C531 61 530 59 527 56C518 47 502 42 478 39C463 37 455 29 455 16C455 5 461 0 474 0L599 3C620 3 690 0 708 0C723 0 731 8 731 23C731 33 724 38 709 39C678 39 658 40 651 44C644 48 636 60 628 80L501 383C569 455 620 509 653 546C677 571 693 588 702 595C739 626 780 642 825 644C846 645 851 650 851 669C848 678 847 683 834 683Z"/><path id="MJX-20-NCM-N-3B" d="M192 375C192 405 169 431 139 431C109 431 86 405 86 375C86 344 109 318 139 318C169 318 192 345 192 375M86 54C86 22 107-2 139-2C150-2 160 1 167 5C166-61 146-117 108-163C103-169 101-174 101-178C101-188 105-193 114-193C119-193 128-185 141-168C177-121 195-64 195 4C195 75 176 110 139 110C107 110 86 86 86 54Z"/><path id="MJX-20-NCM-I-1D44C" d="M664 680C646 680 584 683 565 683C550 683 542 675 542 660C542 649 548 644 561 644C582 644 593 638 593 626C593 615 584 600 567 581L342 322L236 609C233 617 231 622 230 625C230 638 248 644 284 644C303 644 312 652 312 668C312 678 306 683 293 683L168 680C146 680 76 683 58 683C43 683 35 675 35 659C35 649 44 644 62 644C80 644 95 642 104 640C123 635 124 632 130 613L252 288C255 281 256 276 256 273L235 190C223 139 215 107 211 94C204 67 197 51 190 46C183 41 160 39 122 39C100 38 91 37 91 15C91 5 97 0 109 0L234 3L360 0C375-1 383 7 383 24C383 31 380 36 375 37C365 38 357 39 352 39C319 40 299 42 294 45C292 46 291 48 291 52C291 56 296 77 305 114L340 253C343 266 347 276 353 282L598 564L611 577C637 603 661 621 682 630C699 638 718 643 739 644C757 646 762 651 762 667C762 678 756 683 745 683C730 683 679 680 664 680Z"/><path id="MJX-20-NCM-N-29" d="M78-245C138-199 188-131 229-40C268 47 288 129 288 208L288 292C288 371 268 453 229 540C188 631 138 699 78 745C75 747 72 748 71 748C62 748 57 743 57 734C57 730 59 726 62 723C114 683 156 617 187 526C214 447 228 369 228 292L228 208C228 131 214 53 187-26C156-117 114-183 62-223C59-227 57-231 57-234C57-243 62-248 71-248C72-248 75-247 78-245Z"/><path id="MJX-20-NCM-N-3D" d="M698 367L80 367C64 367 56 359 56 344C56 329 64 321 80 321L698 321C714 321 722 329 722 344C722 356 711 367 698 367M698 179L80 179C64 179 56 171 56 156C56 141 64 133 80 133L698 133C714 133 722 141 722 156C722 169 711 179 698 179Z"/><path id="MJX-20-NCM-SO-2211" d="M56 713L417 216L67-217C60-225 57-231 57-235C57-245 67-250 88-250L913-250L1001 5L967 5C954-33 933-66 902-95C825-166 719-188 565-188L152-188L490 232C497 240 500 246 500 250C500 254 498 259 493 266L175 702L560 702C682 702 764 691 854 644C907 616 944 571 967 510L1001 510L913 750L88 750C57 750 56 746 56 713Z"/><path id="MJX-20-NCM-I-1D465" d="M527 373C527 419 482 442 432 442C389 442 355 419 329 373C308 419 273 442 222 442C173 442 133 419 101 374C74 335 60 306 60 287C60 278 65 273 75 273C84 273 90 278 92 287C111 345 153 413 220 413C253 413 269 392 269 351C269 330 251 252 216 118C199 51 169 18 126 18C112 18 99 21 88 26C114 36 127 54 127 80C127 106 114 119 87 119C54 119 29 91 29 58C29 12 76-11 125-11C167-11 201 12 228 58C247 12 283-11 335-11C383-11 423 12 455 57C482 96 496 125 496 144C496 153 491 158 481 158C472 158 467 153 464 144C447 87 402 18 337 18C304 18 287 38 287 79C287 92 292 120 303 165L337 300C356 375 387 413 431 413C445 413 458 410 469 405C442 396 429 378 429 351C429 325 443 312 470 312C502 312 527 341 527 373Z"/><path id="MJX-20-NCM-N-2C" d="M139 106C107 106 86 82 86 50C86 20 109-5 139-5C153-5 165-1 174 8L175 0C175-63 154-117 112-160C105-168 101-174 101-178C101-188 105-193 114-193C123-193 135-181 152-158C186-110 203-57 203 0C203 53 185 106 139 106Z"/><path id="MJX-20-NCM-I-1D466" d="M163 442C118 442 83 417 58 367C39 328 29 301 29 286C29 277 34 272 45 272C59 272 60 278 64 293C87 372 119 412 160 412C173 412 180 403 180 385C180 369 175 346 164 317C126 214 107 145 107 108C107 32 154-13 231-13C264-13 295-1 323 23C288-109 233-175 158-175C124-175 101-164 89-142C129-140 149-121 149-85C149-60 136-47 109-47C72-47 50-78 50-115C50-170 100-205 158-205C273-205 367-99 392-1L486 377C489 388 490 396 490 401C490 421 479 431 458 431C442 431 429 423 420 408C414 387 409 369 406 354L342 97C332 61 279 16 234 16C196 16 177 41 177 92C177 134 194 198 227 284C240 319 247 343 247 357C247 406 212 442 163 442Z"/><path id="MJX-20-NCM-I-1D45D" d="M355 442C311 442 269 419 228 373C217 419 186 442 137 442C96 442 66 409 45 344C35 311 30 292 30 286C30 277 35 272 46 272C51 272 54 273 57 275C62 284 65 291 66 298C84 374 107 412 134 412C152 412 161 398 161 371C161 356 159 339 154 321L44-118C35-151 34-155-5-155C-23-155-32-163-32-178C-32-189-26-194-15-194C0-194 52-191 67-191C86-191 146-194 165-194C180-194 187-186 187-170C187-160 178-155 159-155C141-155 114-156 114-144C114-131 155 26 159 43C179 6 209-13 249-13C314-13 371 20 421 87C467 148 490 213 490 280C490 367 438 442 355 442M352 412C391 412 411 382 411 323C411 296 405 260 394 215C371 128 342 71 307 42C286 25 267 16 248 16C219 16 199 29 188 56C179 77 174 92 174 100L225 309C230 331 248 354 276 377C304 400 329 412 352 412Z"/><path id="MJX-20-NCM-N-2062" d=""/><path id="MJX-20-NCM-N-6C" d="M144 3L255 0L255 39C219 39 197 40 190 44C183 48 180 60 180 79L180 694L33 683L33 645C68 645 90 642 97 636C104 630 108 616 108 593L108 79C108 60 105 48 98 44C91 40 69 39 33 39L33 0Z"/><path id="MJX-20-NCM-N-6F" d="M249-11C311-11 363 11 406 55C449 99 471 152 471 214C471 277 450 332 408 378C366 424 313 448 250 448C187 448 135 424 92 378C49 332 28 277 28 214C28 152 49 99 92 55C135 11 188-11 249-11M250 21C202 21 166 42 141 85C125 113 117 159 117 222C117 283 125 327 140 355C164 398 200 419 249 419C296 419 332 398 357 357C374 329 382 284 382 222C382 106 348 21 250 21Z"/><path id="MJX-20-NCM-N-67" d="M431 453C393 453 358 438 326 408C296 431 262 442 223 442C137 442 59 378 59 294C59 252 74 218 104 192C85 168 75 141 75 110C75 72 88 43 113 24C71 10 28-26 28-77C28-120 56-154 111-178C153-197 199-206 249-206C300-206 347-197 389-178C444-154 471-120 471-75C471-22 449 17 405 42C359 67 308 70 234 70C190 70 166 70 161 71C133 75 113 102 113 133C113 148 117 162 126 174C154 155 186 145 223 145C309 145 386 209 386 293C386 332 373 364 347 389C372 412 399 423 428 423C423 418 420 410 420 400C420 378 431 367 453 367C474 367 485 378 485 401C485 432 461 453 431 453M223 411C277 411 304 372 304 294C304 215 277 175 223 175C168 175 141 214 141 293C141 372 168 411 223 411M164 4L222 4C274 4 316 1 348-6C391-15 412-39 412-77C412-109 392-134 352-153C321-168 287-175 250-175C214-175 180-168 148-153C107-134 87-109 87-77C87-35 123 4 164 4Z"/></defs></svg>
