<svg preserveAspectRatio="xMidYMid meet" xmlns="http://www.w3.org/2000/svg" width="550.144" height="128" viewBox="0 -750 4298 1000" xmlns:xlink="http://www.w3.org/1999/xlink"><g stroke="currentColor" fill="currentColor" stroke-width="0" transform="scale(1,-1)"><g><g><g><use xlink:href="#MJX-45-NCM-N-46"/><use xlink:href="#MJX-45-NCM-N-6C" transform="translate(653,0)"/><use xlink:href="#MJX-45-NCM-N-61" transform="translate(931,0)"/><use xlink:href="#MJX-45-NCM-N-73" transform="translate(1431,0)"/><use xlink:href="#MJX-45-NCM-N-68" transform="translate(1825,0)"/><use xlink:href="#MJX-45-NCM-N-41" transform="translate(2381,0)"/><use xlink:href="#MJX-45-NCM-N-74" transform="translate(3131,0)"/><use xlink:href="#MJX-45-NCM-N-74" transform="translate(3520,0)"/><use xlink:href="#MJX-45-NCM-N-6E" transform="translate(3909,0)"/></g></g><g transform="translate(4465,0)"/></g></g><defs><path id="MJX-45-NCM-N-46" d="M275 641L393 641C464 641 510 626 533 597C565 558 569 521 578 450L611 450L582 680L33 680L33 641L61 641C96 641 117 639 124 634C131 629 135 617 135 599L135 81C135 63 131 51 124 46C117 41 96 39 61 39L33 39L33 0C59 2 110 3 187 3C274 3 330 2 357 0L357 39L320 39C267 39 238 44 233 55C231 60 230 69 230 82L230 321L311 321C354 321 382 313 394 298C406 283 412 253 412 206L444 206L444 475L412 475C412 429 406 398 394 383C382 368 354 360 311 360L230 360L230 606C230 642 236 641 275 641Z"/><path id="MJX-45-NCM-N-6C" d="M144 3L255 0L255 39C219 39 197 40 190 44C183 48 180 60 180 79L180 694L33 683L33 645C68 645 90 642 97 636C104 630 108 616 108 593L108 79C108 60 105 48 98 44C91 40 69 39 33 39L33 0Z"/><path id="MJX-45-NCM-N-61" d="M483 91L483 150L451 150L451 91C451 52 440 32 419 32C399 32 387 57 387 77L387 274C387 309 383 335 376 353C352 412 283 448 213 448C136 448 60 405 60 333C60 300 77 283 110 283C143 283 159 299 159 332C159 361 144 378 113 381C135 406 168 419 211 419C273 419 311 362 311 297L311 264C233 259 174 247 133 228C66 197 32 154 32 97C32 71 42 49 61 32C93 3 137-11 193-11C252-11 294 14 320 65C327 27 355-6 398-6C451-6 483 36 483 91M200 18C154 18 116 52 116 98C116 191 213 231 311 236L311 141C311 74 267 18 200 18Z"/><path id="MJX-45-NCM-N-73" d="M360 130C360 206 308 254 205 274C158 283 128 294 112 305C96 316 88 332 88 351C88 398 123 421 193 421C261 421 298 383 303 306C304 298 309 294 319 294C330 294 336 303 336 321L336 420C336 439 331 448 321 448C310 448 295 430 285 422C260 439 229 448 193 448C104 448 33 408 33 323C33 289 47 260 76 237C111 208 144 202 207 191C272 178 305 149 305 104C305 47 270 18 199 18C130 18 86 64 67 155C64 168 59 175 50 175C39 175 33 165 33 146L33 17C33-2 38-11 48-11C51-11 56-8 64-1C82 15 74 12 92 30C121 3 157-11 199-11C294-11 360 38 360 130Z"/><path id="MJX-45-NCM-N-68" d="M314 415C359 415 382 380 382 309L382 79C382 60 379 48 372 44C365 40 343 39 306 39L306 0L421 3L535 0L535 39C503 39 482 40 472 43C462 46 458 53 458 64L458 253C458 301 457 334 454 353C444 414 399 445 320 445C259 445 213 417 182 361L182 694L32 683L32 645C68 645 90 642 98 636C106 630 109 616 109 593L109 79C109 60 105 48 98 44C91 40 69 39 32 39L32 0L147 3L261 0L261 39C224 39 203 40 196 44C189 48 185 60 185 79L185 261C185 342 236 415 314 415Z"/><path id="MJX-45-NCM-N-41" d="M583 3L717 0L717 39L695 39C670 39 653 40 646 42C631 47 621 58 615 75L401 694C397 707 390 716 375 716C362 716 353 709 348 694L143 102C129 61 92 39 32 38L32 0L137 3L254 0L254 39C205 39 180 54 180 85C180 92 181 96 182 98L227 225L465 225L516 77C518 71 519 67 519 64C519 47 492 39 437 39L437 0C479 3 528 4 583 3M345 569L451 264L240 264Z"/><path id="MJX-45-NCM-N-74" d="M332 126L332 186L300 186L300 128C300 78 282 22 238 22C197 22 177 56 177 124L177 395L316 395L316 433L177 433L177 615L145 615C144 582 141 553 134 527C117 461 78 427 19 424L19 395L102 395L102 126C102 67 120 29 155 10C182-4 207-11 232-11C298-11 332 55 332 126Z"/><path id="MJX-45-NCM-N-6E" d="M314 413C359 413 382 378 382 307L382 79C382 60 379 48 372 44C365 40 343 38 306 38L306 0L421 3L535 0L535 38C503 38 482 39 472 42C462 45 458 52 458 64L458 251C458 298 457 331 454 350C444 411 399 442 320 442C257 442 210 412 179 352L179 442L32 431L32 393C68 393 90 390 98 384C106 378 109 365 109 342L109 79C109 60 105 48 98 44C91 40 69 38 32 38L32 0L147 3L261 0L261 38C224 38 203 40 196 44C189 48 185 60 185 79L185 259C185 340 236 413 314 413Z"/><path id="MJX-45-NCM-N-3A" d="M192 375C192 405 169 431 139 431C109 431 86 405 86 375C86 345 109 319 139 319C169 319 192 345 192 375M192 56C192 86 169 112 139 112C109 112 86 86 86 56C86 26 109 0 139 0C169 0 192 26 192 56Z"/><path id="MJX-45-NCM-I-1D442" d="M702 263C727 320 740 377 740 435C740 513 717 577 670 628C623 679 561 705 484 705C431 705 378 692 325 666C217 613 138 529 87 415C62 359 49 303 49 246C49 167 72 103 119 53C166 3 228-22 306-22C358-22 410-9 463 16C572 69 651 152 702 263M644 474C644 341 584 208 520 129C476 74 400 12 312 12C205 12 149 105 149 218C149 253 156 300 169 357C196 475 264 579 353 633C396 659 438 672 478 672C586 672 644 586 644 474Z"/><path id="MJX-45-NCM-N-3D" d="M698 367L80 367C64 367 56 359 56 344C56 329 64 321 80 321L698 321C714 321 722 329 722 344C722 356 711 367 698 367M698 179L80 179C64 179 56 171 56 156C56 141 64 133 80 133L698 133C714 133 722 141 722 156C722 169 711 179 698 179Z"/><path id="MJX-45-NCM-N-6F" d="M249-11C311-11 363 11 406 55C449 99 471 152 471 214C471 277 450 332 408 378C366 424 313 448 250 448C187 448 135 424 92 378C49 332 28 277 28 214C28 152 49 99 92 55C135 11 188-11 249-11M250 21C202 21 166 42 141 85C125 113 117 159 117 222C117 283 125 327 140 355C164 398 200 419 249 419C296 419 332 398 357 357C374 329 382 284 382 222C382 106 348 21 250 21Z"/><path id="MJX-45-NCM-N-66" d="M265 705C176 705 110 633 110 544L110 434L33 434L33 396L110 396L110 79C110 60 107 48 100 44C93 40 71 39 34 39L34 0L149 3C191 4 234 3 277 0L277 39L253 39C220 39 199 41 192 46C185 51 182 63 182 81L182 396L294 396L294 434L179 434L179 545C179 605 210 675 265 675C273 675 280 674 287 672C272 664 264 650 264 631C264 600 279 584 310 584C341 584 357 600 357 632C357 677 310 705 265 705Z"/><path id="MJX-45-NCM-N-6D" d="M315 413C361 413 384 378 384 307L384 79C384 60 381 48 374 44C367 40 344 38 307 38L307 0L423 3L538 0L538 38C501 38 479 40 472 44C465 48 461 60 461 79L461 259C461 339 513 413 590 413C637 413 660 378 660 307L660 79C660 60 656 48 649 44C642 40 619 38 582 38L582 0L698 3L813 0L813 38C781 38 760 39 750 42C740 45 736 52 736 64L736 251C736 298 734 331 731 350C721 411 676 442 597 442C534 442 487 413 455 354C441 413 397 442 322 442C259 442 211 412 179 352L179 442L32 431L32 393C68 393 90 390 98 384C106 378 109 365 109 342L109 79C109 60 105 48 98 44C91 40 69 38 32 38L32 0L148 3L263 0L263 38C226 38 203 40 196 44C189 48 185 60 185 79L185 259C185 340 238 413 315 413Z"/><path id="MJX-45-NCM-N-78" d="M418 3C441 4 474 3 516 0L516 38C463 38 443 39 422 67L292 235C335 288 364 324 380 343C408 375 447 392 498 393L498 431C470 429 442 428 414 428C377 428 344 429 315 431L315 393C334 391 344 382 344 366C344 357 339 346 330 334L272 262L198 357C193 364 190 369 190 372C190 385 202 392 225 393L225 431L114 428C88 427 56 428 17 431L17 393C53 393 76 390 86 385C96 380 112 363 134 334L229 210C180 147 150 109 139 96C107 57 65 38 12 38L12 0C49 3 77 4 98 3L195 0L195 38C176 41 167 50 167 65C167 69 168 74 170 79C176 92 203 126 251 183L323 89C334 75 340 65 343 59C343 46 331 39 307 38L307 0Z"/><path id="MJX-45-NCM-N-2061" d=""/><path id="MJX-45-NCM-S4-28" d="M521-646C533-646 539-640 539-628C539-622 537-617 533-613C446-546 376-432 324-271C279-134 257 1 257 133L257 367C257 499 279 634 324 771C376 932 446 1046 533 1113C537 1117 539 1122 539 1128C539 1140 533 1146 521 1146C519 1146 516 1145 511 1144C412 1068 331 950 267 791C208 644 179 502 179 367L179 133C179-2 208-144 267-291C331-450 412-568 511-644C516-645 519-646 521-646Z"/><path id="MJX-45-NCM-I-1D444" d="M306-24C335-24 366-19 399-10C396-48 395-72 395-81C395-156 424-194 481-194C542-194 589-145 612-100C637-48 650-14 650 2C650 11 645 16 635 16C628 16 623 12 620 3C605-43 564-90 508-90C457-90 450-49 442 6C526 39 597 96 654 178C711 260 740 345 740 434C740 513 717 577 670 628C623 679 561 705 484 705C431 705 378 692 325 665C217 612 138 528 87 415C62 358 49 302 49 245C49 88 151-24 306-24M645 466C645 405 630 335 600 254C565 161 511 92 436 48C432 70 426 90 418 108C405 138 381 153 346 153C291 153 241 103 241 48C241 39 242 30 244 23C177 54 144 117 144 213C144 255 152 306 169 366C204 493 267 583 358 636C401 660 441 672 478 672C588 672 645 581 645 466M346 123C383 123 402 96 402 43C402 34 399 29 393 27C365 15 338 9 312 9C284 9 270 22 270 48C270 86 308 123 346 123Z"/><path id="MJX-45-NCM-N-2062" d=""/><path id="MJX-45-NCM-I-1D43E" d="M804 680C783 680 715 683 694 683C679 683 671 675 671 659C671 651 678 646 692 643C706 640 714 635 714 628C714 617 703 602 680 585L302 296L379 602C384 623 393 636 406 641C412 643 429 644 458 644C484 644 496 644 496 668C496 678 490 683 478 683L351 680L223 683C207 684 199 676 199 660C199 649 210 644 232 644C252 644 293 647 293 631C293 629 292 623 289 613L156 82C151 60 141 47 126 42C119 40 101 39 70 39C48 39 38 37 38 16C38 5 44 0 57 0L183 3L246 2C257 2 299 0 310 0C326 0 334 8 334 24C334 34 324 39 303 39C262 39 242 43 242 52C242 57 245 72 251 95L290 249L433 359L546 98C553 81 557 70 557 65C557 48 541 39 510 39C492 39 484 35 484 15C484 5 490 0 502 0C524 0 600 3 622 3C641 3 701 0 720 0C734 0 741 8 741 24C741 33 733 38 718 39C677 39 667 50 653 81L512 404C511 409 509 413 508 416L708 570C757 608 799 631 833 639C857 643 889 642 889 668C889 678 884 683 874 683C860 683 818 680 804 680Z"/><path id="MJX-45-NCM-N-22A4" d="M698 664L80 664C64 664 56 656 56 640C56 625 64 617 80 617L365 617L365 4C365-12 373-20 389-20C405-20 413-12 413 4L413 617L698 617C714 617 722 625 722 640C722 653 711 664 698 664Z"/><path id="MJX-45-NCM-N-221A" d="M847-2C851 7 853 13 853 16C853 32 845 40 829 40C820 40 813 36 809 27C666-259 595-403 595-405L595-406C595-413 527-558 390-843L217-461C212-450 207-445 201-445C198-445 192-448 184-454L86-528C77-535 73-540 73-545C73-555 78-560 87-560C90-560 95-557 103-551L151-516L345-943C350-954 357-960 367-960C379-960 387-955 392-946Z"/><path id="MJX-45-NCM-I-1D451" d="M429 632L370 389C349 426 320 445 281 445C216 445 159 412 109 345C63 283 40 218 40 151C40 63 91-11 175-11C218-11 260 12 300 59C311 21 345-11 392-11C461-11 483 71 498 145C498 154 493 159 483 159C474 159 468 152 465 138C445 59 421 19 394 19C377 19 368 33 368 60C368 75 370 91 374 107L516 679L516 683C513 690 507 694 499 694C476 694 434 690 374 683C363 682 357 674 357 660C357 650 366 645 384 645C403 645 429 646 429 632M341 376C351 355 356 341 356 332C355 328 354 323 353 316L304 122C301 111 294 99 285 87C248 42 212 19 177 19C138 19 118 49 118 108C118 132 124 168 136 216C157 301 187 359 224 390C244 407 263 415 282 415C309 415 329 402 341 376Z"/><path id="MJX-45-NCM-S4-29" d="M86-644C185-568 266-450 330-291C389-144 418-2 418 133L418 367C418 502 389 644 330 791C266 950 185 1068 86 1144C81 1145 78 1146 76 1146C64 1146 58 1140 58 1128C58 1122 60 1117 64 1113C151 1046 221 932 273 771C318 634 340 499 340 367L340 133C340 1 318-134 273-271C221-432 151-546 64-613C60-617 58-622 58-628C58-640 64-646 76-646C78-646 81-645 86-644Z"/><path id="MJX-45-NCM-I-1D449" d="M671 680C652 680 592 683 573 683C558 683 550 675 550 660C550 650 557 645 570 644C598 643 612 633 612 616C612 607 607 595 598 580L300 107L234 619C234 636 255 644 298 644C318 644 327 651 327 668C327 678 321 683 309 683C287 683 209 680 187 680C167 680 99 683 79 683C64 683 56 675 56 660C56 649 66 644 85 644C102 644 114 642 122 640C138 635 137 633 140 614L218 4C221-13 229-22 242-22C255-22 265-15 273-2L629 564C652 600 674 623 696 632C711 639 730 643 752 644C763 645 768 652 769 667C770 678 764 683 752 683C737 683 686 680 671 680Z"/></defs></svg>
