<svg preserveAspectRatio="xMidYMid meet" xmlns="http://www.w3.org/2000/svg" width="715.482" height="128" viewBox="0 -750 5589.7 1000" xmlns:xlink="http://www.w3.org/1999/xlink"><g stroke="currentColor" fill="currentColor" stroke-width="0" transform="scale(1,-1)"><g><g><use xlink:href="#MJX-24-NCM-N-54"/><use xlink:href="#MJX-24-NCM-N-46" transform="translate(722,0)"/><use xlink:href="#MJX-24-NCM-N-2D" transform="translate(1375,0)"/><use xlink:href="#MJX-24-NCM-N-49" transform="translate(1708,0)"/><use xlink:href="#MJX-24-NCM-N-44" transform="translate(2069,0)"/><use xlink:href="#MJX-24-NCM-N-46" transform="translate(2833,0)"/></g><g transform="translate(3486,0)"><g><g><use xlink:href="#MJX-24-NCM-N-28"/></g><g transform="translate(389,0)"><g><use xlink:href="#MJX-24-NCM-I-1D461"/></g><g transform="translate(361,0)"><use xlink:href="#MJX-24-NCM-N-2C"/></g><g transform="translate(805.7,0)"><use xlink:href="#MJX-24-NCM-I-1D451"/></g></g><g transform="translate(1714.7,0)"><use xlink:href="#MJX-24-NCM-N-29"/></g></g></g></g></g><defs><path id="MJX-24-NCM-N-54" d="M653 447L685 447L666 677L55 677L36 447L68 447C75 513 78 572 106 605C132 635 181 638 242 638C271 638 289 638 295 637C313 633 313 624 313 603L313 82C313 69 312 61 309 56C303 45 271 39 213 39L169 39L169 0C199 2 263 3 360 3C458 3 522 2 552 0L552 39L508 39C450 39 418 45 412 56C409 61 408 69 408 82L408 603C408 614 410 623 412 629C414 635 436 638 479 638C540 638 588 635 614 605C642 572 646 513 653 447Z"/><path id="MJX-24-NCM-N-46" d="M275 641L393 641C464 641 510 626 533 597C565 558 569 521 578 450L611 450L582 680L33 680L33 641L61 641C96 641 117 639 124 634C131 629 135 617 135 599L135 81C135 63 131 51 124 46C117 41 96 39 61 39L33 39L33 0C59 2 110 3 187 3C274 3 330 2 357 0L357 39L320 39C267 39 238 44 233 55C231 60 230 69 230 82L230 321L311 321C354 321 382 313 394 298C406 283 412 253 412 206L444 206L444 475L412 475C412 429 406 398 394 383C382 368 354 360 311 360L230 360L230 606C230 642 236 641 275 641Z"/><path id="MJX-24-NCM-N-2D" d="M11 187L276 187L276 245L11 245Z"/><path id="MJX-24-NCM-N-49" d="M180 3C257 3 308 2 333 0L333 39L304 39C268 39 246 41 239 46C232 51 228 63 228 81L228 602C228 620 232 631 239 636C246 641 268 644 304 644L333 644L333 683C308 681 257 680 181 680C104 680 53 681 28 683L28 644L57 644C93 644 115 641 122 636C129 631 133 620 133 602L133 81C133 63 129 51 122 46C115 41 93 39 57 39L28 39L28 0C53 2 104 3 180 3Z"/><path id="MJX-24-NCM-N-44" d="M401 0C490 0 563 34 622 103C679 168 707 246 707 336C707 428 679 508 624 575C565 647 490 683 401 683L35 683L35 644L63 644C98 644 119 641 126 636C133 631 137 620 137 602L137 81C137 63 133 51 126 46C119 41 98 39 63 39L35 39L35 0M374 39L274 39C235 39 230 38 230 74L230 609C230 645 235 644 274 644L373 644C447 644 506 614 550 554C583 507 600 435 600 336C600 161 534 39 374 39Z"/><path id="MJX-24-NCM-N-28" d="M318-248C327-248 332-243 332-234C332-231 330-227 327-223C275-183 233-117 202-26C175 53 161 131 161 208L161 292C161 369 175 447 202 526C233 617 275 683 327 723C330 726 332 730 332 734C332 743 327 748 318 748C317 748 314 747 311 745C251 699 201 631 160 540C121 453 101 371 101 292L101 208C101 129 121 47 160-40C201-131 251-199 311-245C314-247 317-248 318-248Z"/><path id="MJX-24-NCM-I-1D461" d="M330 419C330 428 320 433 299 433L218 433C244 537 257 591 257 595C257 616 246 626 225 626C202 626 188 613 182 587L145 433L56 433C34 433 23 432 23 411C23 400 33 395 54 395L135 395C86 200 62 97 62 84C62 28 100-11 156-11C194-11 227 6 256 41C280 70 297 98 308 125C312 136 314 142 314 145C314 154 309 159 299 159C291 159 285 154 281 143C247 60 206 19 157 19C140 19 131 33 131 60C131 75 133 91 137 107L208 395L297 395C323 395 330 397 330 419Z"/><path id="MJX-24-NCM-N-2C" d="M139 106C107 106 86 82 86 50C86 20 109-5 139-5C153-5 165-1 174 8L175 0C175-63 154-117 112-160C105-168 101-174 101-178C101-188 105-193 114-193C123-193 135-181 152-158C186-110 203-57 203 0C203 53 185 106 139 106Z"/><path id="MJX-24-NCM-I-1D451" d="M429 632L370 389C349 426 320 445 281 445C216 445 159 412 109 345C63 283 40 218 40 151C40 63 91-11 175-11C218-11 260 12 300 59C311 21 345-11 392-11C461-11 483 71 498 145C498 154 493 159 483 159C474 159 468 152 465 138C445 59 421 19 394 19C377 19 368 33 368 60C368 75 370 91 374 107L516 679L516 683C513 690 507 694 499 694C476 694 434 690 374 683C363 682 357 674 357 660C357 650 366 645 384 645C403 645 429 646 429 632M341 376C351 355 356 341 356 332C355 328 354 323 353 316L304 122C301 111 294 99 285 87C248 42 212 19 177 19C138 19 118 49 118 108C118 132 124 168 136 216C157 301 187 359 224 390C244 407 263 415 282 415C309 415 329 402 341 376Z"/><path id="MJX-24-NCM-N-29" d="M78-245C138-199 188-131 229-40C268 47 288 129 288 208L288 292C288 371 268 453 229 540C188 631 138 699 78 745C75 747 72 748 71 748C62 748 57 743 57 734C57 730 59 726 62 723C114 683 156 617 187 526C214 447 228 369 228 292L228 208C228 131 214 53 187-26C156-117 114-183 62-223C59-227 57-231 57-234C57-243 62-248 71-248C72-248 75-247 78-245Z"/><path id="MJX-24-NCM-N-3D" d="M698 367L80 367C64 367 56 359 56 344C56 329 64 321 80 321L698 321C714 321 722 329 722 344C722 356 711 367 698 367M698 179L80 179C64 179 56 171 56 156C56 141 64 133 80 133L698 133C714 133 722 141 722 156C722 169 711 179 698 179Z"/><path id="MJX-24-NCM-N-74" d="M332 126L332 186L300 186L300 128C300 78 282 22 238 22C197 22 177 56 177 124L177 395L316 395L316 433L177 433L177 615L145 615C144 582 141 553 134 527C117 461 78 427 19 424L19 395L102 395L102 126C102 67 120 29 155 10C182-4 207-11 232-11C298-11 332 55 332 126Z"/><path id="MJX-24-NCM-N-66" d="M265 705C176 705 110 633 110 544L110 434L33 434L33 396L110 396L110 79C110 60 107 48 100 44C93 40 71 39 34 39L34 0L149 3C191 4 234 3 277 0L277 39L253 39C220 39 199 41 192 46C185 51 182 63 182 81L182 396L294 396L294 434L179 434L179 545C179 605 210 675 265 675C273 675 280 674 287 672C272 664 264 650 264 631C264 600 279 584 310 584C341 584 357 600 357 632C357 677 310 705 265 705Z"/><path id="MJX-24-NCM-N-2061" d=""/><path id="MJX-24-NCM-N-22C5" d="M192 250C192 279 168 303 139 303C110 303 86 279 86 250C86 221 110 197 139 197C168 197 192 221 192 250Z"/><path id="MJX-24-NCM-N-6C" d="M144 3L255 0L255 39C219 39 197 40 190 44C183 48 180 60 180 79L180 694L33 683L33 645C68 645 90 642 97 636C104 630 108 616 108 593L108 79C108 60 105 48 98 44C91 40 69 39 33 39L33 0Z"/><path id="MJX-24-NCM-N-6F" d="M249-11C311-11 363 11 406 55C449 99 471 152 471 214C471 277 450 332 408 378C366 424 313 448 250 448C187 448 135 424 92 378C49 332 28 277 28 214C28 152 49 99 92 55C135 11 188-11 249-11M250 21C202 21 166 42 141 85C125 113 117 159 117 222C117 283 125 327 140 355C164 398 200 419 249 419C296 419 332 398 357 357C374 329 382 284 382 222C382 106 348 21 250 21Z"/><path id="MJX-24-NCM-N-67" d="M431 453C393 453 358 438 326 408C296 431 262 442 223 442C137 442 59 378 59 294C59 252 74 218 104 192C85 168 75 141 75 110C75 72 88 43 113 24C71 10 28-26 28-77C28-120 56-154 111-178C153-197 199-206 249-206C300-206 347-197 389-178C444-154 471-120 471-75C471-22 449 17 405 42C359 67 308 70 234 70C190 70 166 70 161 71C133 75 113 102 113 133C113 148 117 162 126 174C154 155 186 145 223 145C309 145 386 209 386 293C386 332 373 364 347 389C372 412 399 423 428 423C423 418 420 410 420 400C420 378 431 367 453 367C474 367 485 378 485 401C485 432 461 453 431 453M223 411C277 411 304 372 304 294C304 215 277 175 223 175C168 175 141 214 141 293C141 372 168 411 223 411M164 4L222 4C274 4 316 1 348-6C391-15 412-39 412-77C412-109 392-134 352-153C321-168 287-175 250-175C214-175 180-168 148-153C107-134 87-109 87-77C87-35 123 4 164 4Z"/><path id="MJX-24-NCM-I-1D441" d="M864 683C845 683 783 680 764 680C745 680 682 683 663 683C648 683 641 675 641 659C641 650 648 645 663 644C705 644 726 631 726 605C726 599 725 592 724 585L616 157L401 662C393 681 391 683 366 683L233 683C209 683 200 681 200 659C200 649 211 644 232 644C274 644 295 643 296 640L163 110C154 71 131 49 95 42C69 39 39 43 39 15C39 5 45 0 56 0C74 0 136 3 155 3C174 3 238 0 257 0C272 0 279 8 279 24C279 33 271 38 255 39C214 40 194 53 194 78C194 83 195 90 197 100L326 611L576 21C582 7 590 0 599 0C608 0 614 8 618 24L757 574C770 625 798 643 860 644C874 645 881 653 881 669C878 678 877 683 864 683Z"/><path id="MJX-24-NCM-N-64" d="M374-11L527 0L527 38C491 38 470 40 462 46C454 52 450 67 450 90L450 694L301 683L301 645C336 645 358 642 366 636C374 630 377 616 377 593L377 390C345 427 305 445 257 445C195 445 142 423 99 378C56 333 34 279 34 216C34 155 54 102 95 57C136 12 186-11 247-11C298-11 341 8 374 47M261 415C304 415 339 396 364 358C371 347 374 336 374 323L374 121C374 108 371 97 364 86C336 41 298 19 251 19C210 19 177 39 151 80C133 110 124 155 124 215C124 324 161 415 261 415Z"/></defs></svg>
