<svg preserveAspectRatio="xMidYMid meet" xmlns="http://www.w3.org/2000/svg" width="536.448" height="128" viewBox="0 -750 4191 1000" xmlns:xlink="http://www.w3.org/1999/xlink"><g stroke="currentColor" fill="currentColor" stroke-width="0" transform="scale(1,-1)"><g><g><g><g><use xlink:href="#MJX-10-NCM-N-47"/><use xlink:href="#MJX-10-NCM-N-45" transform="translate(785,0)"/><use xlink:href="#MJX-10-NCM-N-4C" transform="translate(1466,0)"/><use xlink:href="#MJX-10-NCM-N-55" transform="translate(2091,0)"/></g></g><g transform="translate(2841,0)"><use xlink:href="#MJX-10-NCM-N-2061"/></g><g transform="translate(2841,0)"><g><use xlink:href="#MJX-10-NCM-N-28"/></g><g transform="translate(389,0)"><use xlink:href="#MJX-10-NCM-I-1D465"/></g><g transform="translate(961,0)"><use xlink:href="#MJX-10-NCM-N-29"/></g></g></g></g></g><defs><path id="MJX-10-NCM-N-47" d="M667 443L667 677C667 696 662 705 652 705C645 705 639 700 633 691L586 622C568 640 547 657 524 673C491 694 451 705 404 705C306 705 223 670 156 598C89 526 56 441 56 342C56 243 90 158 157 86C224 14 307-22 406-22C495-22 557 5 591 59C599 46 639 1 654 1C663 1 667 10 667 27L667 200C667 218 670 229 676 233C682 237 702 239 735 239L735 278L610 275C547 273 492 274 447 278L447 239L483 239C524 239 549 236 558 231C567 226 571 214 571 196L571 132C571 83 549 50 506 34C474 23 446 17 422 17C383 17 343 27 304 48C210 97 166 193 166 342C166 483 215 589 303 636C342 656 379 666 416 666C539 666 611 553 627 435C629 422 636 415 647 415C667 415 667 423 667 443Z"/><path id="MJX-10-NCM-N-45" d="M230 74L230 334L315 334C360 334 388 326 400 311C412 296 418 265 418 218L451 218L451 488L418 488C418 441 412 411 400 396C388 381 360 373 315 373L230 373L230 606C230 642 236 641 275 641L402 641C474 641 522 627 547 598C579 559 583 523 592 450L625 450L596 680L33 680L33 641L61 641C96 641 117 639 124 634C131 629 135 617 135 599L135 81C135 63 131 51 124 46C117 41 96 39 61 39L33 39L33 0L610 0L653 263L620 263C611 208 602 166 591 136C580 106 560 82 530 63C505 47 464 39 406 39L275 39C236 39 230 38 230 74Z"/><path id="MJX-10-NCM-N-4C" d="M230 74L230 601C230 614 231 622 233 627C238 638 267 644 320 644L356 644L356 683C330 681 274 680 187 680C110 680 59 681 33 683L33 644L61 644C96 644 117 641 124 636C131 631 135 620 135 602L135 81C135 63 131 51 124 46C117 41 96 39 61 39L33 39L33 0L554 0L582 263L550 263C545 212 536 171 525 139C503 76 444 39 355 39L274 39C236 39 230 39 230 74Z"/><path id="MJX-10-NCM-N-55" d="M716 644L716 683L596 680L474 683L474 644C523 644 553 636 564 619C572 606 576 592 576 575L576 232C576 175 560 125 527 84C492 39 446 17 390 17C359 17 327 28 294 51C252 81 231 139 231 225L231 602C231 620 235 631 242 636C249 641 270 644 305 644L332 644L332 683C307 681 257 680 183 680C109 680 59 681 33 683L33 644L61 644C96 644 117 641 124 636C131 631 135 620 135 602L135 229C135 159 160 100 209 51C258 2 318-22 388-22C508-22 595 77 611 186C613 199 614 222 614 255L614 571C614 631 639 644 716 644Z"/><path id="MJX-10-NCM-N-2061" d=""/><path id="MJX-10-NCM-N-28" d="M318-248C327-248 332-243 332-234C332-231 330-227 327-223C275-183 233-117 202-26C175 53 161 131 161 208L161 292C161 369 175 447 202 526C233 617 275 683 327 723C330 726 332 730 332 734C332 743 327 748 318 748C317 748 314 747 311 745C251 699 201 631 160 540C121 453 101 371 101 292L101 208C101 129 121 47 160-40C201-131 251-199 311-245C314-247 317-248 318-248Z"/><path id="MJX-10-NCM-I-1D465" d="M527 373C527 419 482 442 432 442C389 442 355 419 329 373C308 419 273 442 222 442C173 442 133 419 101 374C74 335 60 306 60 287C60 278 65 273 75 273C84 273 90 278 92 287C111 345 153 413 220 413C253 413 269 392 269 351C269 330 251 252 216 118C199 51 169 18 126 18C112 18 99 21 88 26C114 36 127 54 127 80C127 106 114 119 87 119C54 119 29 91 29 58C29 12 76-11 125-11C167-11 201 12 228 58C247 12 283-11 335-11C383-11 423 12 455 57C482 96 496 125 496 144C496 153 491 158 481 158C472 158 467 153 464 144C447 87 402 18 337 18C304 18 287 38 287 79C287 92 292 120 303 165L337 300C356 375 387 413 431 413C445 413 458 410 469 405C442 396 429 378 429 351C429 325 443 312 470 312C502 312 527 341 527 373Z"/><path id="MJX-10-NCM-N-29" d="M78-245C138-199 188-131 229-40C268 47 288 129 288 208L288 292C288 371 268 453 229 540C188 631 138 699 78 745C75 747 72 748 71 748C62 748 57 743 57 734C57 730 59 726 62 723C114 683 156 617 187 526C214 447 228 369 228 292L228 208C228 131 214 53 187-26C156-117 114-183 62-223C59-227 57-231 57-234C57-243 62-248 71-248C72-248 75-247 78-245Z"/><path id="MJX-10-NCM-N-3D" d="M698 367L80 367C64 367 56 359 56 344C56 329 64 321 80 321L698 321C714 321 722 329 722 344C722 356 711 367 698 367M698 179L80 179C64 179 56 171 56 156C56 141 64 133 80 133L698 133C714 133 722 141 722 156C722 169 711 179 698 179Z"/><path id="MJX-10-NCM-N-32" d="M237 666C186 666 143 648 106 612C69 576 50 534 50 483C50 449 75 424 106 424C136 424 161 450 161 480C161 513 137 536 105 536C102 536 100 536 98 535C117 584 161 627 224 627C306 627 352 556 352 470C352 403 318 331 250 255L62 43C49 28 50 29 50 0L421 0L450 180L417 180C409 129 402 100 396 91C391 86 361 84 306 84L139 84L236 179C304 243 390 312 419 365C439 400 449 435 449 470C449 588 357 666 237 666Z"/><path id="MJX-10-NCM-N-2062" d=""/><path id="MJX-10-NCM-S4-5B" d="M448-620C448-601 434-590 419-590L284-590L284 1090L419 1090C434 1090 448 1105 448 1120C448 1135 434 1150 419 1150L226 1150L226-650L419-650C435-650 448-636 448-620Z"/><path id="MJX-10-NCM-N-31" d="M269 666C228 624 168 603 89 603L89 564C141 564 184 572 217 588L217 82C217 64 213 52 204 47C195 42 170 39 130 39L95 39L95 0C120 2 174 3 257 3C340 3 394 2 419 0L419 39L384 39C343 39 318 42 310 47C302 52 297 64 297 82L297 636C297 660 295 666 269 666Z"/><path id="MJX-10-NCM-N-2B" d="M698 274L413 274L413 559C413 575 405 583 389 583C373 583 365 575 365 559L365 274L80 274C64 274 56 266 56 250C56 234 64 226 80 226L365 226L365-59C365-75 373-83 389-83C405-83 413-75 413-59L413 226L698 226C714 226 722 234 722 250C722 263 711 274 698 274Z"/><path id="MJX-10-NCM-N-65" d="M415 251C415 366 348 448 236 448C176 448 126 425 85 378C47 334 28 281 28 220C28 157 49 104 91 58C133 12 185-11 247-11C304-11 348 9 378 48C403 81 415 105 415 121C415 131 409 136 398 136C390 136 385 131 382 120C360 54 317 21 253 21C208 21 173 42 146 85C127 116 118 163 117 227L387 227C409 227 415 229 415 251M326 349C337 316 342 284 342 255L118 255C121 321 138 366 168 389C193 409 215 419 236 419C281 419 311 396 326 349Z"/><path id="MJX-10-NCM-N-72" d="M364 378C364 417 327 442 288 442C237 442 198 412 172 351L172 442L28 431L28 393C63 393 84 390 92 384C100 378 104 365 104 342L104 79C104 60 101 48 94 44C87 40 65 38 28 38L28 0L143 3C185 4 228 3 271 0L271 38L247 38C214 38 193 41 186 46C179 51 176 63 176 81L176 232C176 275 184 314 199 347C219 390 248 412 287 413C277 403 272 391 272 377C272 346 287 331 318 331C345 331 364 352 364 378Z"/><path id="MJX-10-NCM-N-66" d="M265 705C176 705 110 633 110 544L110 434L33 434L33 396L110 396L110 79C110 60 107 48 100 44C93 40 71 39 34 39L34 0L149 3C191 4 234 3 277 0L277 39L253 39C220 39 199 41 192 46C185 51 182 63 182 81L182 396L294 396L294 434L179 434L179 545C179 605 210 675 265 675C273 675 280 674 287 672C272 664 264 650 264 631C264 600 279 584 310 584C341 584 357 600 357 632C357 677 310 705 265 705Z"/><path id="MJX-10-NCM-S4-28" d="M521-646C533-646 539-640 539-628C539-622 537-617 533-613C446-546 376-432 324-271C279-134 257 1 257 133L257 367C257 499 279 634 324 771C376 932 446 1046 533 1113C537 1117 539 1122 539 1128C539 1140 533 1146 521 1146C519 1146 516 1145 511 1144C412 1068 331 950 267 791C208 644 179 502 179 367L179 133C179-2 208-144 267-291C331-450 412-568 511-644C516-645 519-646 521-646Z"/><path id="MJX-10-NCM-N-221A" d="M847-2C851 7 853 13 853 16C853 32 845 40 829 40C820 40 813 36 809 27C666-259 595-403 595-405L595-406C595-413 527-558 390-843L217-461C212-450 207-445 201-445C198-445 192-448 184-454L86-528C77-535 73-540 73-545C73-555 78-560 87-560C90-560 95-557 103-551L151-516L345-943C350-954 357-960 367-960C379-960 387-955 392-946Z"/><path id="MJX-10-NCM-S4-29" d="M86-644C185-568 266-450 330-291C389-144 418-2 418 133L418 367C418 502 389 644 330 791C266 950 185 1068 86 1144C81 1145 78 1146 76 1146C64 1146 58 1140 58 1128C58 1122 60 1117 64 1113C151 1046 221 932 273 771C318 634 340 499 340 367L340 133C340 1 318-134 273-271C221-432 151-546 64-613C60-617 58-622 58-628C58-640 64-646 76-646C78-646 81-645 86-644Z"/><path id="MJX-10-NCM-S4-5D" d="M24 1120C24 1105 38 1090 53 1090L188 1090L188-590L53-590C38-590 24-605 24-620C24-635 38-650 53-650L246-650L246 1150L53 1150C38 1150 24 1135 24 1120Z"/></defs></svg>
