<svg preserveAspectRatio="xMidYMid meet" xmlns="http://www.w3.org/2000/svg" width="314.099" height="128" viewBox="0 -750 2453.9 1000" xmlns:xlink="http://www.w3.org/1999/xlink"><g stroke="currentColor" fill="currentColor" stroke-width="0" transform="scale(1,-1)"><g><g><g><g><use xlink:href="#MJX-12-NCM-C-4C"/></g></g><g transform="translate(803,-150) scale(0.707)"><g><use xlink:href="#MJX-12-NCM-N-43"/><use xlink:href="#MJX-12-NCM-N-4C" transform="translate(722,0)"/><use xlink:href="#MJX-12-NCM-N-4D" transform="translate(1347,0)"/></g></g></g></g></g><defs><path id="MJX-12-NCM-C-4C" d="M234 176C280 199 331 253 360 302C378 332 399 376 424 435C451 498 471 542 486 569C502 599 548 643 592 643C623 643 643 621 635 588C630 569 630 557 633 553C640 544 650 540 664 540L676 542C701 546 719 566 728 603C742 659 698 685 643 685C547 685 465 637 397 540C377 512 355 467 331 404C290 297 253 230 218 204C200 190 181 177 161 164C132 147 113 132 104 121C72 82 50 47 39 14L61-9C79 24 99 53 122 80C141 103 165 114 194 114C223 114 265 93 318 51C334 35 358 20 391 6C412-3 441-7 480-7C511-7 549 11 592 48C632 81 660 133 676 203C681 229 684 250 684 266L652 259C647 224 641 198 636 183C620 134 573 79 516 79C462 79 385 116 341 148C317 166 281 175 234 176Z"/><path id="MJX-12-NCM-N-43" d="M665 443L665 677C665 696 660 705 650 705C643 705 637 700 631 691L584 622C554 653 522 675 487 689C461 700 433 705 403 705C306 705 223 670 156 598C89 526 56 441 56 342C56 243 89 158 155 87C222 14 305-22 403-22C474-22 536 3 588 53C640 103 665 163 665 234C665 248 659 255 648 255C638 255 633 251 633 242C633 241 633 239 632 236C626 116 540 17 415 17C378 17 341 27 302 47C210 97 166 193 166 341C166 481 215 589 302 636C341 656 378 666 414 666C538 666 609 553 626 435C627 422 634 415 645 415C665 415 665 423 665 443Z"/><path id="MJX-12-NCM-N-4C" d="M230 74L230 601C230 614 231 622 233 627C238 638 267 644 320 644L356 644L356 683C330 681 274 680 187 680C110 680 59 681 33 683L33 644L61 644C96 644 117 641 124 636C131 631 135 620 135 602L135 81C135 63 131 51 124 46C117 41 96 39 61 39L33 39L33 0L554 0L582 263L550 263C545 212 536 171 525 139C503 76 444 39 355 39L274 39C236 39 230 39 230 74Z"/><path id="MJX-12-NCM-N-4D" d="M175 108L175 622L407 24C413 8 421 0 430 0C439 0 446 7 452 21L689 630L689 81C689 63 685 51 678 46C671 41 650 39 615 39L587 39L587 0C614 2 663 3 733 3C803 3 852 2 879 0L879 39L851 39C816 39 795 41 788 46C781 51 777 63 777 81L777 602C777 620 781 631 788 636C795 641 816 644 851 644L879 644L879 683L708 683C681 683 679 682 671 662L458 115L247 659C238 679 235 683 208 683L37 683L37 644L65 644C100 644 121 641 128 636C135 631 139 620 139 602L139 108C139 91 135 77 127 64C116 47 86 39 37 39L37 0L157 3L277 0L277 39C204 39 175 51 175 108Z"/><path id="MJX-12-NCM-N-3D" d="M698 367L80 367C64 367 56 359 56 344C56 329 64 321 80 321L698 321C714 321 722 329 722 344C722 356 711 367 698 367M698 179L80 179C64 179 56 171 56 156C56 141 64 133 80 133L698 133C714 133 722 141 722 156C722 169 711 179 698 179Z"/><path id="MJX-12-NCM-N-2212" d="M698 270L80 270C64 270 56 263 56 250C56 237 64 230 80 230L698 230C714 230 722 237 722 250C722 262 710 270 698 270Z"/><path id="MJX-12-NCM-SO-2211" d="M56 713L417 216L67-217C60-225 57-231 57-235C57-245 67-250 88-250L913-250L1001 5L967 5C954-33 933-66 902-95C825-166 719-188 565-188L152-188L490 232C497 240 500 246 500 250C500 254 498 259 493 266L175 702L560 702C682 702 764 691 854 644C907 616 944 571 967 510L1001 510L913 750L88 750C57 750 56 746 56 713Z"/><path id="MJX-12-NCM-I-1D461" d="M330 419C330 428 320 433 299 433L218 433C244 537 257 591 257 595C257 616 246 626 225 626C202 626 188 613 182 587L145 433L56 433C34 433 23 432 23 411C23 400 33 395 54 395L135 395C86 200 62 97 62 84C62 28 100-11 156-11C194-11 227 6 256 41C280 70 297 98 308 125C312 136 314 142 314 145C314 154 309 159 299 159C291 159 285 154 281 143C247 60 206 19 157 19C140 19 131 33 131 60C131 75 133 91 137 107L208 395L297 395C323 395 330 397 330 419Z"/><path id="MJX-12-NCM-N-6C" d="M144 3L255 0L255 39C219 39 197 40 190 44C183 48 180 60 180 79L180 694L33 683L33 645C68 645 90 642 97 636C104 630 108 616 108 593L108 79C108 60 105 48 98 44C91 40 69 39 33 39L33 0Z"/><path id="MJX-12-NCM-N-6F" d="M249-11C311-11 363 11 406 55C449 99 471 152 471 214C471 277 450 332 408 378C366 424 313 448 250 448C187 448 135 424 92 378C49 332 28 277 28 214C28 152 49 99 92 55C135 11 188-11 249-11M250 21C202 21 166 42 141 85C125 113 117 159 117 222C117 283 125 327 140 355C164 398 200 419 249 419C296 419 332 398 357 357C374 329 382 284 382 222C382 106 348 21 250 21Z"/><path id="MJX-12-NCM-N-67" d="M431 453C393 453 358 438 326 408C296 431 262 442 223 442C137 442 59 378 59 294C59 252 74 218 104 192C85 168 75 141 75 110C75 72 88 43 113 24C71 10 28-26 28-77C28-120 56-154 111-178C153-197 199-206 249-206C300-206 347-197 389-178C444-154 471-120 471-75C471-22 449 17 405 42C359 67 308 70 234 70C190 70 166 70 161 71C133 75 113 102 113 133C113 148 117 162 126 174C154 155 186 145 223 145C309 145 386 209 386 293C386 332 373 364 347 389C372 412 399 423 428 423C423 418 420 410 420 400C420 378 431 367 453 367C474 367 485 378 485 401C485 432 461 453 431 453M223 411C277 411 304 372 304 294C304 215 277 175 223 175C168 175 141 214 141 293C141 372 168 411 223 411M164 4L222 4C274 4 316 1 348-6C391-15 412-39 412-77C412-109 392-134 352-153C321-168 287-175 250-175C214-175 180-168 148-153C107-134 87-109 87-77C87-35 123 4 164 4Z"/><path id="MJX-12-NCM-N-2061" d=""/><path id="MJX-12-NCM-I-1D45D" d="M355 442C311 442 269 419 228 373C217 419 186 442 137 442C96 442 66 409 45 344C35 311 30 292 30 286C30 277 35 272 46 272C51 272 54 273 57 275C62 284 65 291 66 298C84 374 107 412 134 412C152 412 161 398 161 371C161 356 159 339 154 321L44-118C35-151 34-155-5-155C-23-155-32-163-32-178C-32-189-26-194-15-194C0-194 52-191 67-191C86-191 146-194 165-194C180-194 187-186 187-170C187-160 178-155 159-155C141-155 114-156 114-144C114-131 155 26 159 43C179 6 209-13 249-13C314-13 371 20 421 87C467 148 490 213 490 280C490 367 438 442 355 442M352 412C391 412 411 382 411 323C411 296 405 260 394 215C371 128 342 71 307 42C286 25 267 16 248 16C219 16 199 29 188 56C179 77 174 92 174 100L225 309C230 331 248 354 276 377C304 400 329 412 352 412Z"/><path id="MJX-12-NCM-N-28" d="M318-248C327-248 332-243 332-234C332-231 330-227 327-223C275-183 233-117 202-26C175 53 161 131 161 208L161 292C161 369 175 447 202 526C233 617 275 683 327 723C330 726 332 730 332 734C332 743 327 748 318 748C317 748 314 747 311 745C251 699 201 631 160 540C121 453 101 371 101 292L101 208C101 129 121 47 160-40C201-131 251-199 311-245C314-247 317-248 318-248Z"/><path id="MJX-12-NCM-I-1D465" d="M527 373C527 419 482 442 432 442C389 442 355 419 329 373C308 419 273 442 222 442C173 442 133 419 101 374C74 335 60 306 60 287C60 278 65 273 75 273C84 273 90 278 92 287C111 345 153 413 220 413C253 413 269 392 269 351C269 330 251 252 216 118C199 51 169 18 126 18C112 18 99 21 88 26C114 36 127 54 127 80C127 106 114 119 87 119C54 119 29 91 29 58C29 12 76-11 125-11C167-11 201 12 228 58C247 12 283-11 335-11C383-11 423 12 455 57C482 96 496 125 496 144C496 153 491 158 481 158C472 158 467 153 464 144C447 87 402 18 337 18C304 18 287 38 287 79C287 92 292 120 303 165L337 300C356 375 387 413 431 413C445 413 458 410 469 405C442 396 429 378 429 351C429 325 443 312 470 312C502 312 527 341 527 373Z"/><path id="MJX-12-NCM-N-2223" d="M139-250C152-250 159-242 159-226L159 726C159 742 152 750 139 750C126 750 119 742 119 726L119-226C119-242 126-250 139-250Z"/><path id="MJX-12-NCM-N-3C" d="M666-45C683-52 701-39 701-23C701-13 696-6 687-2L153 250L687 502C696 506 701 513 701 522C701 539 693 547 677 547C673 547 669 546 666 545L92 273C82 268 77 261 77 250C77 239 82 232 92 227Z"/><path id="MJX-12-NCM-N-29" d="M78-245C138-199 188-131 229-40C268 47 288 129 288 208L288 292C288 371 268 453 229 540C188 631 138 699 78 745C75 747 72 748 71 748C62 748 57 743 57 734C57 730 59 726 62 723C114 683 156 617 187 526C214 447 228 369 228 292L228 208C228 131 214 53 187-26C156-117 114-183 62-223C59-227 57-231 57-234C57-243 62-248 71-248C72-248 75-247 78-245Z"/></defs></svg>
