<svg preserveAspectRatio="xMidYMid meet" xmlns="http://www.w3.org/2000/svg" width="389.594" height="128" viewBox="0 -750 3043.7 1000" xmlns:xlink="http://www.w3.org/1999/xlink"><g stroke="currentColor" fill="currentColor" stroke-width="0" transform="scale(1,-1)"><g><g><g><use xlink:href="#MJX-31-NCM-I-1D445"/></g><g transform="translate(759,0)"><use xlink:href="#MJX-31-NCM-N-2061"/></g><g transform="translate(759,0)"><g><use xlink:href="#MJX-31-NCM-N-28"/></g><g transform="translate(389,0)"><g><use xlink:href="#MJX-31-NCM-I-1D465"/></g><g transform="translate(572,0)"><use xlink:href="#MJX-31-NCM-N-2C"/></g><g transform="translate(1016.7,0)"><use xlink:href="#MJX-31-NCM-I-1D466"/></g></g><g transform="translate(1895.7,0)"><use xlink:href="#MJX-31-NCM-N-29"/></g></g></g></g></g><defs><path id="MJX-31-NCM-I-1D445" d="M739 531C739 582 713 621 662 649C621 672 572 683 517 683L235 683C212 683 202 682 202 659C202 652 205 647 211 646C221 645 229 644 234 644C264 643 281 641 286 640C291 639 294 636 294 631C294 629 293 623 290 613L158 82C153 60 143 46 128 41C121 39 103 38 72 38C50 38 41 37 41 15C41 4 47-1 59 0L183 3L309 0C325-1 333 8 333 23C333 33 322 38 301 38C261 38 241 43 241 52C241 52 242 54 244 68L308 327L423 327C492 327 527 298 527 241C527 232 522 210 513 174C502 132 497 104 497 89C497 13 556-22 632-22C660-22 687-9 714 16C741 41 755 68 755 96C755 106 750 111 739 111C732 111 726 106 723 95C712 64 698 41 682 28C666 15 651 8 636 8C613 8 601 27 601 64C601 88 604 125 611 176C614 197 615 212 615 223C615 276 587 315 531 339C625 362 739 429 739 531M609 616C629 603 639 581 639 550C639 530 635 507 626 480C599 398 531 357 422 357L316 357L379 610C384 631 392 642 403 643C408 644 428 644 463 644C528 644 566 642 609 616Z"/><path id="MJX-31-NCM-N-2061" d=""/><path id="MJX-31-NCM-N-28" d="M318-248C327-248 332-243 332-234C332-231 330-227 327-223C275-183 233-117 202-26C175 53 161 131 161 208L161 292C161 369 175 447 202 526C233 617 275 683 327 723C330 726 332 730 332 734C332 743 327 748 318 748C317 748 314 747 311 745C251 699 201 631 160 540C121 453 101 371 101 292L101 208C101 129 121 47 160-40C201-131 251-199 311-245C314-247 317-248 318-248Z"/><path id="MJX-31-NCM-I-1D465" d="M527 373C527 419 482 442 432 442C389 442 355 419 329 373C308 419 273 442 222 442C173 442 133 419 101 374C74 335 60 306 60 287C60 278 65 273 75 273C84 273 90 278 92 287C111 345 153 413 220 413C253 413 269 392 269 351C269 330 251 252 216 118C199 51 169 18 126 18C112 18 99 21 88 26C114 36 127 54 127 80C127 106 114 119 87 119C54 119 29 91 29 58C29 12 76-11 125-11C167-11 201 12 228 58C247 12 283-11 335-11C383-11 423 12 455 57C482 96 496 125 496 144C496 153 491 158 481 158C472 158 467 153 464 144C447 87 402 18 337 18C304 18 287 38 287 79C287 92 292 120 303 165L337 300C356 375 387 413 431 413C445 413 458 410 469 405C442 396 429 378 429 351C429 325 443 312 470 312C502 312 527 341 527 373Z"/><path id="MJX-31-NCM-N-2C" d="M139 106C107 106 86 82 86 50C86 20 109-5 139-5C153-5 165-1 174 8L175 0C175-63 154-117 112-160C105-168 101-174 101-178C101-188 105-193 114-193C123-193 135-181 152-158C186-110 203-57 203 0C203 53 185 106 139 106Z"/><path id="MJX-31-NCM-I-1D466" d="M163 442C118 442 83 417 58 367C39 328 29 301 29 286C29 277 34 272 45 272C59 272 60 278 64 293C87 372 119 412 160 412C173 412 180 403 180 385C180 369 175 346 164 317C126 214 107 145 107 108C107 32 154-13 231-13C264-13 295-1 323 23C288-109 233-175 158-175C124-175 101-164 89-142C129-140 149-121 149-85C149-60 136-47 109-47C72-47 50-78 50-115C50-170 100-205 158-205C273-205 367-99 392-1L486 377C489 388 490 396 490 401C490 421 479 431 458 431C442 431 429 423 420 408C414 387 409 369 406 354L342 97C332 61 279 16 234 16C196 16 177 41 177 92C177 134 194 198 227 284C240 319 247 343 247 357C247 406 212 442 163 442Z"/><path id="MJX-31-NCM-N-29" d="M78-245C138-199 188-131 229-40C268 47 288 129 288 208L288 292C288 371 268 453 229 540C188 631 138 699 78 745C75 747 72 748 71 748C62 748 57 743 57 734C57 730 59 726 62 723C114 683 156 617 187 526C214 447 228 369 228 292L228 208C228 131 214 53 187-26C156-117 114-183 62-223C59-227 57-231 57-234C57-243 62-248 71-248C72-248 75-247 78-245Z"/><path id="MJX-31-NCM-N-3D" d="M698 367L80 367C64 367 56 359 56 344C56 329 64 321 80 321L698 321C714 321 722 329 722 344C722 356 711 367 698 367M698 179L80 179C64 179 56 171 56 156C56 141 64 133 80 133L698 133C714 133 722 141 722 156C722 169 711 179 698 179Z"/><path id="MJX-31-NCM-I-1D45F" d="M436 374C436 416 395 442 351 442C302 442 261 419 227 372C217 411 183 442 136 442C95 442 65 410 44 345C34 312 29 293 29 287C29 278 34 273 45 273C50 273 53 274 56 276C61 285 64 292 65 299C83 375 106 413 133 413C150 413 159 399 159 371C159 358 154 331 144 290L87 63C84 50 78 24 78 19C78-1 89-11 110-11C130-11 143-1 150 19L169 91C180 134 187 162 190 175L221 303C223 311 231 324 244 343C271 381 302 413 351 413C363 413 373 411 382 406C352 397 337 378 337 351C337 325 351 312 378 312C411 312 436 341 436 374Z"/><path id="MJX-31-NCM-I-1D719" d="M385 445C404 524 424 601 442 680L442 683C439 690 434 694 426 694C417 694 411 686 408 671L351 445C276 442 208 414 147 362C82 307 49 243 49 170C49 62 132-7 237-13C218-92 204-149 195-183C194-186 194-189 194-190C194-200 199-205 210-205C221-205 224-199 227-187L271-14C346-11 414 17 475 69C540 125 573 189 573 262C573 369 488 436 385 445M377 415C453 410 501 363 501 283C501 243 492 203 474 164C442 92 369 26 278 17M121 149C121 189 130 229 148 268C180 340 253 405 343 415L244 16C169 22 121 69 121 149Z"/><path id="MJX-31-NCM-N-2212" d="M698 270L80 270C64 270 56 263 56 250C56 237 64 230 80 230L698 230C714 230 722 237 722 250C722 262 710 270 698 270Z"/><path id="MJX-31-NCM-I-1D6FD" d="M427 706C298 706 212 553 182 432L30-178C30-189 35-194 44-194L49-194C56-194 61-191 62-184L126 74C148 16 191-13 255-13C317-13 374 6 425 45C496 98 532 167 532 250C532 317 509 367 463 400C520 435 556 480 569 534C572 547 574 560 574 571C574 654 507 706 427 706M306 399C311 402 329 403 358 403C365 403 371 402 378 401C368 399 359 398 350 398L332 398C321 398 312 398 306 399M148 138C148 154 150 170 154 186L213 426C240 534 312 675 426 675C483 675 511 646 511 589C511 575 509 559 504 540C490 484 464 444 425 421C403 429 381 433 359 433C315 433 270 432 270 396C270 389 273 383 278 379C287 372 310 368 349 368C374 368 399 372 422 380C449 358 463 324 463 278C463 253 459 224 451 193C428 103 360 17 256 17C188 17 148 68 148 138Z"/><path id="MJX-31-NCM-N-2062" d=""/><path id="MJX-31-NCM-N-6C" d="M144 3L255 0L255 39C219 39 197 40 190 44C183 48 180 60 180 79L180 694L33 683L33 645C68 645 90 642 97 636C104 630 108 616 108 593L108 79C108 60 105 48 98 44C91 40 69 39 33 39L33 0Z"/><path id="MJX-31-NCM-N-6F" d="M249-11C311-11 363 11 406 55C449 99 471 152 471 214C471 277 450 332 408 378C366 424 313 448 250 448C187 448 135 424 92 378C49 332 28 277 28 214C28 152 49 99 92 55C135 11 188-11 249-11M250 21C202 21 166 42 141 85C125 113 117 159 117 222C117 283 125 327 140 355C164 398 200 419 249 419C296 419 332 398 357 357C374 329 382 284 382 222C382 106 348 21 250 21Z"/><path id="MJX-31-NCM-N-67" d="M431 453C393 453 358 438 326 408C296 431 262 442 223 442C137 442 59 378 59 294C59 252 74 218 104 192C85 168 75 141 75 110C75 72 88 43 113 24C71 10 28-26 28-77C28-120 56-154 111-178C153-197 199-206 249-206C300-206 347-197 389-178C444-154 471-120 471-75C471-22 449 17 405 42C359 67 308 70 234 70C190 70 166 70 161 71C133 75 113 102 113 133C113 148 117 162 126 174C154 155 186 145 223 145C309 145 386 209 386 293C386 332 373 364 347 389C372 412 399 423 428 423C423 418 420 410 420 400C420 378 431 367 453 367C474 367 485 378 485 401C485 432 461 453 431 453M223 411C277 411 304 372 304 294C304 215 277 175 223 175C168 175 141 214 141 293C141 372 168 411 223 411M164 4L222 4C274 4 316 1 348-6C391-15 412-39 412-77C412-109 392-134 352-153C321-168 287-175 250-175C214-175 180-168 148-153C107-134 87-109 87-77C87-35 123 4 164 4Z"/><path id="MJX-31-NCM-I-1D70B" d="M524 431L194 431C153 431 117 415 88 384C74 369 27 305 27 292C31 285 31 279 43 279C50 279 56 283 62 292C94 341 135 366 184 366L235 366C212 279 170 172 110 45C105 33 102 24 102 19C102-1 113-11 134-11C153-11 167 0 176 21C194 78 207 122 214 152L269 366L372 366C345 247 331 164 331 117C331 68 342-11 379-11C400-11 423 9 423 30C423 35 421 43 417 53C398 100 389 153 389 214C389 261 395 312 406 366L515 366C550 366 567 378 567 403C567 426 549 431 524 431Z"/><path id="MJX-31-NCM-I-1D703" d="M164-11C209-11 256 16 302 70C382 163 455 335 455 498C455 539 448 582 434 625C416 678 382 705 333 705C288 705 243 678 196 624C116 532 42 360 42 196C42 94 75-11 164-11M332 675C365 675 382 637 382 560C382 517 372 452 352 367L155 367C180 460 204 529 229 574C266 641 301 675 332 675M145 327L341 327C322 246 299 181 274 132C235 57 199 19 164 19C131 19 115 58 115 135C115 185 125 249 145 327Z"/><path id="MJX-31-NCM-N-2223" d="M139-250C152-250 159-242 159-226L159 726C159 742 152 750 139 750C126 750 119 742 119 726L119-226C119-242 126-250 139-250Z"/><path id="MJX-31-NCM-N-72" d="M364 378C364 417 327 442 288 442C237 442 198 412 172 351L172 442L28 431L28 393C63 393 84 390 92 384C100 378 104 365 104 342L104 79C104 60 101 48 94 44C87 40 65 38 28 38L28 0L143 3C185 4 228 3 271 0L271 38L247 38C214 38 193 41 186 46C179 51 176 63 176 81L176 232C176 275 184 314 199 347C219 390 248 412 287 413C277 403 272 391 272 377C272 346 287 331 318 331C345 331 364 352 364 378Z"/><path id="MJX-31-NCM-N-65" d="M415 251C415 366 348 448 236 448C176 448 126 425 85 378C47 334 28 281 28 220C28 157 49 104 91 58C133 12 185-11 247-11C304-11 348 9 378 48C403 81 415 105 415 121C415 131 409 136 398 136C390 136 385 131 382 120C360 54 317 21 253 21C208 21 173 42 146 85C127 116 118 163 117 227L387 227C409 227 415 229 415 251M326 349C337 316 342 284 342 255L118 255C121 321 138 366 168 389C193 409 215 419 236 419C281 419 311 396 326 349Z"/><path id="MJX-31-NCM-N-66" d="M265 705C176 705 110 633 110 544L110 434L33 434L33 396L110 396L110 79C110 60 107 48 100 44C93 40 71 39 34 39L34 0L149 3C191 4 234 3 277 0L277 39L253 39C220 39 199 41 192 46C185 51 182 63 182 81L182 396L294 396L294 434L179 434L179 545C179 605 210 675 265 675C273 675 280 674 287 672C272 664 264 650 264 631C264 600 279 584 310 584C341 584 357 600 357 632C357 677 310 705 265 705Z"/></defs></svg>
