<svg preserveAspectRatio="xMidYMid meet" xmlns="http://www.w3.org/2000/svg" width="455.552" height="128" viewBox="0 -750 3559 1000" xmlns:xlink="http://www.w3.org/1999/xlink"><g stroke="currentColor" fill="currentColor" stroke-width="0" transform="scale(1,-1)"><g><g><g><g><use xlink:href="#MJX-11-NCM-N-53"/><use xlink:href="#MJX-11-NCM-N-69" transform="translate(556,0)"/><use xlink:href="#MJX-11-NCM-N-4C" transform="translate(834,0)"/><use xlink:href="#MJX-11-NCM-N-55" transform="translate(1459,0)"/></g></g><g transform="translate(2209,0)"><use xlink:href="#MJX-11-NCM-N-2061"/></g><g transform="translate(2209,0)"><g><use xlink:href="#MJX-11-NCM-N-28"/></g><g transform="translate(389,0)"><use xlink:href="#MJX-11-NCM-I-1D465"/></g><g transform="translate(961,0)"><use xlink:href="#MJX-11-NCM-N-29"/></g></g></g></g></g><defs><path id="MJX-11-NCM-N-53" d="M252 669C359 669 422 601 440 466C441 456 447 451 456 451C467 451 472 460 472 478L472 677C472 696 467 705 458 705C452 705 446 700 440 690L408 638C364 680 324 705 251 705C142 705 56 617 56 509C56 417 116 349 187 324L317 292C384 275 428 229 428 154C428 79 376 17 301 17C170 17 93 91 88 218C88 227 83 232 73 232C62 232 56 223 56 204L56 6C56-13 61-22 71-22C77-22 83-17 89-7L121 45C164 0 224-22 302-22C359-22 407-1 444 40C481 81 499 130 499 188C499 235 485 278 458 317C431 356 394 380 349 391L223 422C170 434 127 481 127 544C127 614 182 669 252 669Z"/><path id="MJX-11-NCM-N-69" d="M194 601C194 631 169 657 139 657C109 657 83 631 83 601C83 571 108 544 138 544C169 544 194 570 194 601M143 3L247 0L247 39C214 39 194 41 188 45C182 49 180 60 180 78L180 445L37 433L37 395C70 395 91 392 98 387C105 382 108 368 108 345L108 79C108 60 105 48 98 44C91 40 69 39 33 39L33 0Z"/><path id="MJX-11-NCM-N-4C" d="M230 74L230 601C230 614 231 622 233 627C238 638 267 644 320 644L356 644L356 683C330 681 274 680 187 680C110 680 59 681 33 683L33 644L61 644C96 644 117 641 124 636C131 631 135 620 135 602L135 81C135 63 131 51 124 46C117 41 96 39 61 39L33 39L33 0L554 0L582 263L550 263C545 212 536 171 525 139C503 76 444 39 355 39L274 39C236 39 230 39 230 74Z"/><path id="MJX-11-NCM-N-55" d="M716 644L716 683L596 680L474 683L474 644C523 644 553 636 564 619C572 606 576 592 576 575L576 232C576 175 560 125 527 84C492 39 446 17 390 17C359 17 327 28 294 51C252 81 231 139 231 225L231 602C231 620 235 631 242 636C249 641 270 644 305 644L332 644L332 683C307 681 257 680 183 680C109 680 59 681 33 683L33 644L61 644C96 644 117 641 124 636C131 631 135 620 135 602L135 229C135 159 160 100 209 51C258 2 318-22 388-22C508-22 595 77 611 186C613 199 614 222 614 255L614 571C614 631 639 644 716 644Z"/><path id="MJX-11-NCM-N-2061" d=""/><path id="MJX-11-NCM-N-28" d="M318-248C327-248 332-243 332-234C332-231 330-227 327-223C275-183 233-117 202-26C175 53 161 131 161 208L161 292C161 369 175 447 202 526C233 617 275 683 327 723C330 726 332 730 332 734C332 743 327 748 318 748C317 748 314 747 311 745C251 699 201 631 160 540C121 453 101 371 101 292L101 208C101 129 121 47 160-40C201-131 251-199 311-245C314-247 317-248 318-248Z"/><path id="MJX-11-NCM-I-1D465" d="M527 373C527 419 482 442 432 442C389 442 355 419 329 373C308 419 273 442 222 442C173 442 133 419 101 374C74 335 60 306 60 287C60 278 65 273 75 273C84 273 90 278 92 287C111 345 153 413 220 413C253 413 269 392 269 351C269 330 251 252 216 118C199 51 169 18 126 18C112 18 99 21 88 26C114 36 127 54 127 80C127 106 114 119 87 119C54 119 29 91 29 58C29 12 76-11 125-11C167-11 201 12 228 58C247 12 283-11 335-11C383-11 423 12 455 57C482 96 496 125 496 144C496 153 491 158 481 158C472 158 467 153 464 144C447 87 402 18 337 18C304 18 287 38 287 79C287 92 292 120 303 165L337 300C356 375 387 413 431 413C445 413 458 410 469 405C442 396 429 378 429 351C429 325 443 312 470 312C502 312 527 341 527 373Z"/><path id="MJX-11-NCM-N-29" d="M78-245C138-199 188-131 229-40C268 47 288 129 288 208L288 292C288 371 268 453 229 540C188 631 138 699 78 745C75 747 72 748 71 748C62 748 57 743 57 734C57 730 59 726 62 723C114 683 156 617 187 526C214 447 228 369 228 292L228 208C228 131 214 53 187-26C156-117 114-183 62-223C59-227 57-231 57-234C57-243 62-248 71-248C72-248 75-247 78-245Z"/><path id="MJX-11-NCM-N-3D" d="M698 367L80 367C64 367 56 359 56 344C56 329 64 321 80 321L698 321C714 321 722 329 722 344C722 356 711 367 698 367M698 179L80 179C64 179 56 171 56 156C56 141 64 133 80 133L698 133C714 133 722 141 722 156C722 169 711 179 698 179Z"/><path id="MJX-11-NCM-N-22C5" d="M192 250C192 279 168 303 139 303C110 303 86 279 86 250C86 221 110 197 139 197C168 197 192 221 192 250Z"/><path id="MJX-11-NCM-I-1D70E" d="M525 431L300 431C252 431 207 416 166 385C102 336 38 250 38 148C38 58 100-11 190-11C257-11 317 18 368 76C417 132 441 194 441 263C441 304 432 338 414 366L515 366C550 366 567 378 567 403C567 426 550 431 525 431M107 121C107 180 121 234 150 282C184 338 228 366 283 366C341 366 370 336 370 275C370 250 365 221 355 187C335 116 302 66 256 39C233 25 211 18 191 18C136 18 107 63 107 121Z"/></defs></svg>
